<svg width="200" height="151" viewBox="0 0 200 151" fill="none" xmlns="http://www.w3.org/2000/svg">
<g clip-path="url(#clip0)">
<path d="M30.1106 41.8253C30.4442 37.6142 31.3656 33.496 32.838 29.635C33.2483 28.5605 33.7 27.5096 34.193 26.4825C34.2177 26.4288 34.2237 26.3659 34.2096 26.3071C34.1955 26.2484 34.1625 26.1983 34.1176 26.1675C34.0726 26.1367 34.0192 26.1276 33.9686 26.142C33.918 26.1565 33.8742 26.1934 33.8464 26.245C32.0536 29.9862 30.7977 34.0474 30.1288 38.266C29.9427 39.4441 29.8028 40.6305 29.7092 41.8253C29.6854 42.1266 30.087 42.1247 30.1106 41.8253Z" fill="#E6E6E6"/>
<path d="M35.1652 27.237C36.5691 27.237 37.7073 25.903 37.7073 24.2574C37.7073 22.6119 36.5691 21.2779 35.1652 21.2779C33.7612 21.2779 32.623 22.6119 32.623 24.2574C32.623 25.903 33.7612 27.237 35.1652 27.237Z" fill="#E6E6E6"/>
<path d="M30.3706 41.9044C30.5871 39.1725 31.1848 36.5008 32.14 33.996C32.4062 33.2989 32.6993 32.6172 33.0191 31.9508C33.0351 31.916 33.039 31.8752 33.0298 31.8371C33.0207 31.7989 32.9993 31.7665 32.9702 31.7465C32.941 31.7265 32.9063 31.7206 32.8735 31.73C32.8407 31.7393 32.8123 31.7633 32.7942 31.7968C31.6312 34.2239 30.8164 36.8585 30.3824 39.5954C30.2617 40.3597 30.171 41.1293 30.1102 41.9044C30.0948 42.0999 30.3553 42.0987 30.3706 41.9044Z" fill="#E6E6E6"/>
<path d="M33.6498 32.4403C34.5606 32.4403 35.299 31.5748 35.299 30.5073C35.299 29.4397 34.5606 28.5743 33.6498 28.5743C32.7389 28.5743 32.0006 29.4397 32.0006 30.5073C32.0006 31.5748 32.7389 32.4403 33.6498 32.4403Z" fill="#E6E6E6"/>
<path d="M30.042 41.722C28.779 39.4119 27.8484 36.8744 27.2871 34.2108C27.1312 33.4693 27.0045 32.7205 26.907 31.9645C26.9013 31.9255 26.883 31.8905 26.8558 31.8671C26.8286 31.8436 26.7947 31.8334 26.7612 31.8387C26.7277 31.8439 26.6973 31.8642 26.6763 31.8953C26.6554 31.9264 26.6455 31.9657 26.6489 32.0051C27.0055 34.7573 27.7456 37.4221 28.8396 39.8929C29.1455 40.5825 29.4778 41.2548 29.8367 41.9097C29.9271 42.075 30.1318 41.8862 30.042 41.722Z" fill="#E6E6E6"/>
<path d="M26.6468 32.3047C27.5576 32.3047 28.296 31.4392 28.296 30.3717C28.296 29.3041 27.5576 28.4387 26.6468 28.4387C25.736 28.4387 24.9976 29.3041 24.9976 30.3717C24.9976 31.4392 25.736 32.3047 26.6468 32.3047Z" fill="#E6E6E6"/>
<path d="M24.9791 43.4322V39.6343C24.9795 39.2567 25.1076 38.8947 25.3354 38.6277C25.5632 38.3607 25.872 38.2105 26.1942 38.2101H33.7549C34.077 38.2105 34.3859 38.3607 34.6137 38.6277C34.8415 38.8947 34.9696 39.2567 34.97 39.6343V43.4322C34.9696 43.8098 34.8415 44.1718 34.6137 44.4388C34.3859 44.7058 34.077 44.8559 33.7549 44.8564H26.1942C25.872 44.8559 25.5632 44.7058 25.3354 44.4388C25.1076 44.1718 24.9795 43.8098 24.9791 43.4322Z" fill="#F2F2F2"/>
<path d="M33.4848 19.2207H30.2446C29.9224 19.2203 29.6135 19.0701 29.3858 18.8031C29.158 18.5361 29.0298 18.1741 29.0294 17.7965V2.28846C29.0298 1.91087 29.158 1.54887 29.3858 1.28187C29.6135 1.01487 29.9224 0.864683 30.2446 0.864258H33.4848C33.807 0.864683 34.1159 1.01487 34.3437 1.28187C34.5715 1.54887 34.6996 1.91087 34.6999 2.28846V17.7965C34.6996 18.1741 34.5715 18.5361 34.3437 18.8031C34.1159 19.0701 33.807 19.2203 33.4848 19.2207Z" fill="#F2F2F2"/>
<path d="M34.5649 3.87091H29.1645V5.13687H34.5649V3.87091Z" fill="#CCCCCC"/>
<path d="M34.5649 13.6821H29.1645V14.9481H34.5649V13.6821Z" fill="#CCCCCC"/>
<path d="M41.5856 19.2207H38.3453C38.0231 19.2203 37.7143 19.0701 37.4865 18.8031C37.2587 18.5361 37.1305 18.1741 37.1302 17.7965V2.28846C37.1305 1.91087 37.2587 1.54887 37.4865 1.28187C37.7143 1.01487 38.0231 0.864683 38.3453 0.864258H41.5856C41.9077 0.864683 42.2166 1.01487 42.4444 1.28187C42.6722 1.54887 42.8003 1.91087 42.8007 2.28846V17.7965C42.8003 18.1741 42.6722 18.5361 42.4444 18.8031C42.2166 19.0701 41.9077 19.2203 41.5856 19.2207Z" fill="#F2F2F2"/>
<path d="M42.6656 3.87091H37.2652V5.13687H42.6656V3.87091Z" fill="#CCCCCC"/>
<path d="M42.6656 13.6821H37.2652V14.9481H42.6656V13.6821Z" fill="#CCCCCC"/>
<path d="M49.6863 19.2207H46.446C46.1238 19.2203 45.815 19.0701 45.5872 18.8031C45.3594 18.5361 45.2312 18.1741 45.2309 17.7965V2.28846C45.2312 1.91087 45.3594 1.54887 45.5872 1.28187C45.815 1.01487 46.1238 0.864683 46.446 0.864258H49.6863C50.0084 0.864683 50.3173 1.01487 50.5451 1.28187C50.7729 1.54887 50.901 1.91087 50.9014 2.28846V17.7965C50.901 18.1741 50.7729 18.5361 50.5451 18.8031C50.3173 19.0701 50.0084 19.2203 49.6863 19.2207Z" fill="#F2F2F2"/>
<path d="M50.7663 3.87091H45.3659V5.13687H50.7663V3.87091Z" fill="#CCCCCC"/>
<path d="M50.7663 13.6821H45.3659V14.9481H50.7663V13.6821Z" fill="#CCCCCC"/>
<path d="M54.0067 44.8564H50.7664C50.4442 44.856 50.1354 44.7058 49.9076 44.4388C49.6798 44.1718 49.5516 43.8098 49.5513 43.4322V27.9242C49.5516 27.5466 49.6798 27.1846 49.9076 26.9176C50.1354 26.6506 50.4442 26.5004 50.7664 26.5H54.0067C54.3288 26.5004 54.6377 26.6506 54.8655 26.9176C55.0933 27.1846 55.2214 27.5466 55.2218 27.9242V43.4322C55.2214 43.8098 55.0933 44.1718 54.8655 44.4388C54.6377 44.7058 54.3288 44.856 54.0067 44.8564Z" fill="#F2F2F2"/>
<path d="M55.0868 29.5066H49.6863V30.7726H55.0868V29.5066Z" fill="#CCCCCC"/>
<path d="M55.0868 39.3178H49.6863V40.5838H55.0868V39.3178Z" fill="#CCCCCC"/>
<path d="M62.1074 44.8564H58.8671C58.5449 44.856 58.2361 44.7058 58.0083 44.4388C57.7805 44.1718 57.6523 43.8098 57.652 43.4322V27.9242C57.6523 27.5466 57.7805 27.1846 58.0083 26.9176C58.2361 26.6506 58.5449 26.5004 58.8671 26.5H62.1074C62.4295 26.5004 62.7384 26.6506 62.9662 26.9176C63.194 27.1846 63.3221 27.5466 63.3225 27.9242V43.4322C63.3221 43.8098 63.194 44.1718 62.9662 44.4388C62.7384 44.7058 62.4295 44.856 62.1074 44.8564Z" fill="#F2F2F2"/>
<path d="M63.1875 29.5066H57.787V30.7726H63.1875V29.5066Z" fill="#CCCCCC"/>
<path d="M63.1875 39.3178H57.787V40.5838H63.1875V39.3178Z" fill="#CCCCCC"/>
<path d="M70.2081 44.8564H66.9678C66.6456 44.856 66.3368 44.7058 66.109 44.4388C65.8812 44.1718 65.753 43.8098 65.7527 43.4322V27.9242C65.753 27.5466 65.8812 27.1846 66.109 26.9176C66.3368 26.6506 66.6456 26.5004 66.9678 26.5H70.2081C70.5302 26.5004 70.8391 26.6506 71.0669 26.9176C71.2947 27.1846 71.4228 27.5466 71.4232 27.9242V43.4322C71.4228 43.8098 71.2947 44.1718 71.0669 44.4388C70.8391 44.7058 70.5302 44.856 70.2081 44.8564Z" fill="#F2F2F2"/>
<path d="M71.2882 29.5066H65.8877V30.7726H71.2882V29.5066Z" fill="#CCCCCC"/>
<path d="M71.2882 39.3178H65.8877V40.5838H71.2882V39.3178Z" fill="#CCCCCC"/>
<path d="M32.6748 70.4921H29.4345C29.1123 70.4916 28.8035 70.3414 28.5757 70.0745C28.3479 69.8075 28.2197 69.4455 28.2194 69.0679V53.5599C28.2197 53.1823 28.3479 52.8203 28.5757 52.5533C28.8035 52.2863 29.1123 52.1361 29.4345 52.1357H32.6748C32.9969 52.1361 33.3058 52.2863 33.5336 52.5533C33.7614 52.8203 33.8895 53.1823 33.8899 53.5599V69.0679C33.8895 69.4455 33.7614 69.8075 33.5336 70.0745C33.3058 70.3414 32.9969 70.4916 32.6748 70.4921Z" fill="#F2F2F2"/>
<path d="M33.7549 55.1423H28.3544V56.4082H33.7549V55.1423Z" fill="#CCCCCC"/>
<path d="M33.7549 64.9535H28.3544V66.2195H33.7549V64.9535Z" fill="#CCCCCC"/>
<path d="M40.7755 70.4921H37.5352C37.2131 70.4916 36.9042 70.3414 36.6764 70.0745C36.4486 69.8075 36.3205 69.4455 36.3201 69.0679V53.5599C36.3205 53.1823 36.4486 52.8203 36.6764 52.5533C36.9042 52.2863 37.2131 52.1361 37.5352 52.1357H40.7755C41.0976 52.1361 41.4065 52.2863 41.6343 52.5533C41.8621 52.8203 41.9902 53.1823 41.9906 53.5599V69.0679C41.9902 69.4455 41.8621 69.8075 41.6343 70.0745C41.4065 70.3414 41.0976 70.4916 40.7755 70.4921Z" fill="#F2F2F2"/>
<path d="M41.8556 55.1423H36.4551V56.4082H41.8556V55.1423Z" fill="#CCCCCC"/>
<path d="M41.8556 64.9535H36.4551V66.2195H41.8556V64.9535Z" fill="#CCCCCC"/>
<path d="M48.8762 70.4921H45.6359C45.3138 70.4916 45.0049 70.3414 44.7771 70.0745C44.5493 69.8075 44.4212 69.4455 44.4208 69.0679V53.5599C44.4212 53.1823 44.5493 52.8203 44.7771 52.5533C45.0049 52.2863 45.3138 52.1361 45.6359 52.1357H48.8762C49.1984 52.1361 49.5072 52.2863 49.735 52.5533C49.9628 52.8203 50.0909 53.1823 50.0913 53.5599V69.0679C50.0909 69.4455 49.9628 69.8075 49.735 70.0745C49.5072 70.3414 49.1984 70.4916 48.8762 70.4921Z" fill="#F2F2F2"/>
<path d="M49.9563 55.1423H44.5558V56.4082H49.9563V55.1423Z" fill="#CCCCCC"/>
<path d="M49.9563 64.9535H44.5558V66.2195H49.9563V64.9535Z" fill="#CCCCCC"/>
<path d="M57.787 19.2207H54.5467C54.2246 19.2203 53.9157 19.0701 53.6879 18.8031C53.4601 18.5361 53.332 18.1741 53.3316 17.7965V2.28846C53.332 1.91087 53.4601 1.54887 53.6879 1.28187C53.9157 1.01487 54.2246 0.864683 54.5467 0.864258H57.787C58.1092 0.864683 58.418 1.01487 58.6458 1.28187C58.8736 1.54887 59.0017 1.91087 59.0021 2.28846V17.7965C59.0017 18.1741 58.8736 18.5361 58.6458 18.8031C58.418 19.0701 58.1092 19.2203 57.787 19.2207Z" fill="#F2F2F2"/>
<path d="M58.8671 3.87091H53.4666V5.13687H58.8671V3.87091Z" fill="#CCCCCC"/>
<path d="M58.8671 13.6821H53.4666V14.9481H58.8671V13.6821Z" fill="#CCCCCC"/>
<path d="M65.8877 19.2207H62.6474C62.3252 19.2203 62.0164 19.0701 61.7886 18.8031C61.5608 18.5361 61.4326 18.1741 61.4323 17.7965V2.28846C61.4326 1.91087 61.5608 1.54887 61.7886 1.28187C62.0164 1.01487 62.3252 0.864683 62.6474 0.864258H65.8877C66.2098 0.864683 66.5187 1.01487 66.7465 1.28187C66.9743 1.54887 67.1024 1.91087 67.1028 2.28846V17.7965C67.1024 18.1741 66.9743 18.5361 66.7465 18.8031C66.5187 19.0701 66.2098 19.2203 65.8877 19.2207Z" fill="#F2F2F2"/>
<path d="M66.9678 3.87091H61.5673V5.13687H66.9678V3.87091Z" fill="#CCCCCC"/>
<path d="M66.9678 13.6821H61.5673V14.9481H66.9678V13.6821Z" fill="#CCCCCC"/>
<path d="M73.9884 19.2207H70.7481C70.426 19.2203 70.1171 19.0701 69.8893 18.8031C69.6615 18.5361 69.5334 18.1741 69.533 17.7965V2.28846C69.5334 1.91087 69.6615 1.54887 69.8893 1.28187C70.1171 1.01487 70.426 0.864683 70.7481 0.864258H73.9884C74.3106 0.864683 74.6194 1.01487 74.8472 1.28187C75.075 1.54887 75.2032 1.91087 75.2035 2.28846V17.7965C75.2032 18.1741 75.075 18.5361 74.8472 18.8031C74.6194 19.0701 74.3106 19.2203 73.9884 19.2207Z" fill="#F2F2F2"/>
<path d="M75.0685 3.87091H69.668V5.13687H75.0685V3.87091Z" fill="#CCCCCC"/>
<path d="M75.0685 13.6821H69.668V14.9481H75.0685V13.6821Z" fill="#CCCCCC"/>
<path d="M82.0891 19.2207H78.8488C78.5267 19.2203 78.2178 19.0701 77.99 18.8031C77.7622 18.5361 77.6341 18.1741 77.6337 17.7965V2.28846C77.6341 1.91087 77.7622 1.54887 77.99 1.28187C78.2178 1.01487 78.5267 0.864683 78.8488 0.864258H82.0891C82.4113 0.864683 82.7201 1.01487 82.9479 1.28187C83.1757 1.54887 83.3039 1.91087 83.3042 2.28846V17.7965C83.3039 18.1741 83.1757 18.5361 82.9479 18.8031C82.7201 19.0701 82.4113 19.2203 82.0891 19.2207Z" fill="#F2F2F2"/>
<path d="M83.1692 3.87091H77.7687V5.13687H83.1692V3.87091Z" fill="#CCCCCC"/>
<path d="M83.1692 13.6821H77.7687V14.9481H83.1692V13.6821Z" fill="#CCCCCC"/>
<path d="M94.2243 19.6954H17.2675C17.1958 19.6954 17.1272 19.6621 17.0765 19.6027C17.0259 19.5434 16.9974 19.4629 16.9974 19.3789C16.9974 19.295 17.0259 19.2145 17.0765 19.1551C17.1272 19.0958 17.1958 19.0624 17.2675 19.0624H94.2243C94.2959 19.0624 94.3645 19.0958 94.4152 19.1551C94.4658 19.2145 94.4943 19.295 94.4943 19.3789C94.4943 19.4629 94.4658 19.5434 94.4152 19.6027C94.3645 19.6621 94.2959 19.6954 94.2243 19.6954Z" fill="#CCCCCC"/>
<path d="M94.2243 45.3311H17.2675C17.1958 45.3311 17.1272 45.2978 17.0765 45.2384C17.0259 45.1791 16.9974 45.0986 16.9974 45.0146C16.9974 44.9307 17.0259 44.8502 17.0765 44.7908C17.1272 44.7315 17.1958 44.6981 17.2675 44.6981H94.2243C94.2959 44.6981 94.3645 44.7315 94.4152 44.7908C94.4658 44.8502 94.4943 44.9307 94.4943 45.0146C94.4943 45.0986 94.4658 45.1791 94.4152 45.2384C94.3645 45.2978 94.2959 45.3311 94.2243 45.3311Z" fill="#CCCCCC"/>
<path d="M94.2243 70.9668H17.2675C17.1958 70.9668 17.1272 70.9334 17.0765 70.8741C17.0259 70.8147 16.9974 70.7342 16.9974 70.6503C16.9974 70.5664 17.0259 70.4859 17.0765 70.4265C17.1272 70.3672 17.1958 70.3338 17.2675 70.3338H94.2243C94.2959 70.3338 94.3645 70.3672 94.4152 70.4265C94.4658 70.4859 94.4943 70.5664 94.4943 70.6503C94.4943 70.7342 94.4658 70.8147 94.4152 70.8741C94.3645 70.9334 94.2959 70.9668 94.2243 70.9668Z" fill="#CCCCCC"/>
<path d="M89.6668 120.65C89.6668 118.203 81.8087 116.219 72.1153 116.219C62.4218 116.219 54.5637 118.203 54.5637 120.65C54.5637 122.218 57.7944 123.595 62.6644 124.383V148.659C62.6644 149.205 62.8494 149.728 63.1785 150.114C63.5077 150.5 63.9541 150.717 64.4196 150.717C64.8851 150.717 65.3315 150.5 65.6607 150.114C65.9898 149.728 66.1747 149.205 66.1747 148.659V124.82C68.0304 124.989 70.0298 125.081 72.1153 125.081C74.2007 125.081 76.2002 124.989 78.0558 124.82V148.659C78.0558 149.205 78.2407 149.728 78.5699 150.114C78.899 150.5 79.3455 150.717 79.811 150.717C80.2764 150.717 80.7229 150.5 81.052 150.114C81.3812 149.728 81.5661 149.205 81.5661 148.659V124.383C86.4362 123.595 89.6668 122.218 89.6668 120.65Z" fill="#CCCCCC"/>
<path d="M86.2896 146.736H89.6001L91.1749 131.77H86.2891L86.2896 146.736Z" fill="#A0616A"/>
<path d="M95.9846 150.339L85.5804 150.339L85.5802 145.628L91.9646 145.628C93.0307 145.627 94.0532 146.124 94.8071 147.007C95.561 147.891 95.9845 149.089 95.9846 150.339L95.9846 150.339Z" fill="#2F2E41"/>
<path d="M91.4573 144.571L94.6158 143.409L92.2958 128.577L87.6341 130.291L91.4573 144.571Z" fill="#A0616A"/>
<path d="M101.628 144.606L91.7008 148.257L90.4972 143.762L96.5887 141.522C97.6059 141.147 98.7083 141.262 99.6533 141.841C100.598 142.419 101.309 143.414 101.628 144.606Z" fill="#2F2E41"/>
<path d="M89.2426 137.683L83.1867 119.05C81.8281 119.424 70.4344 122.379 66.6183 117.617C65.3105 115.985 65.0555 113.62 65.8602 110.589L68.0872 107.308L68.1565 107.313C68.9985 107.365 88.7958 108.665 90.1529 115.665C91.2971 121.565 93.3869 132.567 94 135.798C94.0622 136.133 94.0196 136.483 93.8802 136.784C93.7407 137.085 93.5136 137.317 93.2402 137.439L90.8047 138.509C90.6691 138.569 90.5253 138.6 90.3803 138.6C90.1338 138.6 89.893 138.512 89.6899 138.348C89.4868 138.184 89.3308 137.952 89.2426 137.683Z" fill="#2F2E41"/>
<path d="M85.7323 139.898L79.6764 121.266C78.3177 121.64 66.9241 124.595 63.108 119.833C61.8002 118.2 61.5452 115.836 62.3499 112.804L64.5769 109.524L64.6461 109.528C65.4882 109.58 85.2855 110.881 86.6426 117.88C87.7868 123.781 89.8766 134.782 90.4897 138.014C90.5519 138.348 90.5093 138.698 90.3699 138.999C90.2304 139.3 90.0033 139.533 89.7299 139.654L87.2944 140.724C87.1587 140.784 87.015 140.815 86.87 140.815C86.6234 140.815 86.3827 140.727 86.1796 140.564C85.9765 140.4 85.8205 140.168 85.7323 139.898Z" fill="#2F2E41"/>
<path d="M93.9161 95.2341C93.8267 95.3743 93.7468 95.5227 93.6772 95.6776L80.3596 97.3222L78.4425 94.2415L74.0977 97.0249L77.863 104.501L94.196 99.6197C94.6081 100.091 95.1327 100.403 95.7001 100.516C96.2675 100.629 96.8507 100.537 97.3723 100.252C97.8939 99.9666 98.329 99.5022 98.6199 98.9201C98.9108 98.3381 99.0436 97.6661 99.0006 96.9934C98.9577 96.3207 98.7411 95.6793 98.3796 95.1545C98.0181 94.6297 97.5288 94.2463 96.9769 94.0553C96.4249 93.8643 95.8364 93.8748 95.2897 94.0853C94.743 94.2959 94.2639 94.6966 93.9161 95.2341V95.2341Z" fill="#A0616A"/>
<path d="M62.2642 113.788C62.082 113.634 61.9396 113.424 61.8529 113.181C61.7663 112.938 61.7386 112.672 61.7731 112.412C62.5245 106.606 61.66 98.29 60.8025 92.3357C60.627 91.1276 60.6953 89.8881 61.0019 88.7165C61.3086 87.5449 61.8451 86.4738 62.5685 85.5889C63.2919 84.704 64.182 84.03 65.1676 83.6209C66.1532 83.2118 67.2069 83.0789 68.2442 83.2329C69.1466 83.3727 70.0407 83.5792 70.9209 83.8514C72.383 84.2829 73.6763 85.2847 74.5882 86.6921C75.5 88.0994 75.9762 89.8285 75.9385 91.5952C75.8102 97.3408 76.8056 104.51 77.2395 107.325C77.2691 107.519 77.2644 107.717 77.2257 107.908C77.187 108.099 77.115 108.279 77.0144 108.436C76.9157 108.592 76.7904 108.721 76.6465 108.817C76.5025 108.912 76.3431 108.971 76.1786 108.99C71.3699 109.565 66.1844 112.314 63.5213 113.901C63.3502 114.004 63.1605 114.059 62.9679 114.059C62.7147 114.059 62.4683 113.963 62.2642 113.788Z" fill="#6C63FF"/>
<path d="M75.2445 98.8142C75.0959 98.7458 74.9603 98.6435 74.8456 98.5133C74.731 98.383 74.6395 98.2274 74.5765 98.0555L71.8948 90.7944C71.7324 90.3557 71.6454 89.8838 71.6387 89.4057C71.632 88.9275 71.7058 88.4525 71.8558 88.0078C72.0058 87.5631 72.2291 87.1574 72.513 86.8139C72.7968 86.4704 73.1356 86.1958 73.5101 86.0058C73.8845 85.8159 74.2872 85.7143 74.6952 85.7068C75.1031 85.6994 75.5083 85.7862 75.8876 85.9624C76.2669 86.1386 76.6129 86.4007 76.9057 86.7337C77.1985 87.0667 77.4325 87.464 77.5943 87.903L80.276 95.1641C80.4036 95.5108 80.4087 95.9026 80.2901 96.2536C80.1716 96.6047 79.9391 96.8863 79.6436 97.0367L76.1744 98.7969C76.0281 98.8718 75.8705 98.9118 75.7109 98.9148C75.5513 98.9178 75.3928 98.8836 75.2445 98.8142H75.2445Z" fill="#6C63FF"/>
<path d="M81.225 94.6011C81.1356 94.7414 81.0557 94.8897 80.9861 95.0447L67.6685 96.6892L65.7514 93.6085L61.4065 96.3919L65.1719 103.868L81.5049 98.9867C81.917 99.4576 82.4416 99.7702 83.009 99.8831C83.5763 99.996 84.1596 99.9038 84.6812 99.6187C85.2027 99.3336 85.6379 98.8692 85.9288 98.2871C86.2197 97.7051 86.3525 97.0331 86.3095 96.3604C86.2666 95.6878 86.05 95.0464 85.6885 94.5215C85.327 93.9967 84.8377 93.6133 84.2858 93.4223C83.7338 93.2313 83.1453 93.2418 82.5986 93.4524C82.0519 93.6629 81.5728 94.0636 81.225 94.6011V94.6011Z" fill="#A0616A"/>
<path d="M62.5534 99.1307C62.4048 99.0623 62.2692 98.96 62.1545 98.8297C62.0399 98.6995 61.9484 98.5439 61.8854 98.3719L59.2037 91.1109C59.0413 90.6722 58.9543 90.2003 58.9476 89.7221C58.9409 89.244 59.0147 88.769 59.1647 88.3243C59.3147 87.8795 59.538 87.4738 59.8219 87.1303C60.1057 86.7868 60.4445 86.5122 60.819 86.3223C61.1934 86.1323 61.5961 86.0307 62.0041 86.0233C62.412 86.0159 62.8172 86.1027 63.1965 86.2789C63.5758 86.4551 63.9218 86.7172 64.2146 87.0501C64.5074 87.3831 64.7414 87.7805 64.9032 88.2195L67.585 95.4806C67.7125 95.8272 67.7176 96.2191 67.599 96.5701C67.4805 96.9212 67.248 97.2028 66.9526 97.3532L63.4833 99.1134C63.337 99.1882 63.1794 99.2283 63.0198 99.2313C62.8602 99.2343 62.7017 99.2001 62.5534 99.1307H62.5534Z" fill="#6C63FF"/>
<path d="M67.7507 80.7628C71.4134 80.7628 74.3827 77.2826 74.3827 72.9895C74.3827 68.6964 71.4134 65.2162 67.7507 65.2162C64.0879 65.2162 61.1186 68.6964 61.1186 72.9895C61.1186 77.2826 64.0879 80.7628 67.7507 80.7628Z" fill="#A0616A"/>
<path d="M63.0089 78.3245C62.9804 78.2269 62.9714 78.123 62.9825 78.0207C62.9936 77.9184 63.0245 77.8205 63.0729 77.7343C63.1213 77.6482 63.1858 77.5762 63.2616 77.5239C63.3374 77.4715 63.4224 77.4402 63.5101 77.4323C63.6898 77.4437 63.8656 77.4977 64.0269 77.591C64.1882 77.6843 64.3317 77.8149 64.4488 77.975C64.6888 78.2994 64.9682 78.5806 65.2781 78.8097C65.5989 78.9992 66.034 78.9722 66.2169 78.6108C66.3886 78.2715 66.271 77.8171 66.167 77.4229C65.9024 76.4201 65.7544 75.38 65.7269 74.3308C65.6969 73.1597 65.8379 71.9375 66.3911 71.0241C67.105 69.8452 68.3815 69.3977 69.5896 69.4301C70.7977 69.4626 71.9862 69.8997 73.1828 70.176C73.596 70.2714 74.0815 70.3202 74.3579 69.9449C74.6517 69.5458 74.5438 68.9 74.4188 68.3612C74.0945 66.9632 73.7505 65.5177 72.997 64.3886C72.1824 63.2153 71.0187 62.4474 69.7403 62.2396C68.513 62.0614 67.2672 62.2272 66.1052 62.7233C64.212 63.4227 62.5461 64.7829 61.3304 66.622C60.0771 68.5778 59.5356 71.0357 59.8242 73.4582C60.1061 75.5682 61.06 77.4743 62.4936 78.7926L63.0089 78.3245Z" fill="#2F2E41"/>
<path d="M37.6862 97.0381C38.0198 92.8271 38.9411 88.7088 40.4135 84.8478C40.8239 83.7733 41.2756 82.7225 41.7686 81.6953C41.7933 81.6416 41.7992 81.5787 41.7851 81.5199C41.7711 81.4612 41.7381 81.4111 41.6931 81.3803C41.6482 81.3495 41.5948 81.3404 41.5442 81.3549C41.4936 81.3693 41.4498 81.4062 41.422 81.4578C39.6292 85.1991 38.3733 89.2602 37.7043 93.4789C37.5183 94.657 37.3784 95.8434 37.2848 97.0381C37.261 97.3394 37.6625 97.3375 37.6862 97.0381Z" fill="#3F3D56"/>
<path d="M42.7407 82.4498C44.1447 82.4498 45.2828 81.1158 45.2828 79.4702C45.2828 77.8247 44.1447 76.4907 42.7407 76.4907C41.3368 76.4907 40.1986 77.8247 40.1986 79.4702C40.1986 81.1158 41.3368 82.4498 42.7407 82.4498Z" fill="#6C63FF"/>
<path d="M37.9462 97.1173C38.1626 94.3854 38.7603 91.7137 39.7156 89.2088C39.9818 88.5118 40.2748 87.83 40.5946 87.1637C40.6106 87.1288 40.6145 87.088 40.6054 87.0499C40.5962 87.0118 40.5748 86.9793 40.5457 86.9593C40.5165 86.9394 40.4819 86.9334 40.4491 86.9428C40.4162 86.9522 40.3878 86.9762 40.3698 87.0096C39.2067 89.4367 38.3919 92.0714 37.958 94.8082C37.8372 95.5725 37.7465 96.3422 37.6858 97.1173C37.6703 97.3128 37.9308 97.3115 37.9462 97.1173Z" fill="#3F3D56"/>
<path d="M41.2253 87.6531C42.1361 87.6531 42.8745 86.7877 42.8745 85.7202C42.8745 84.6526 42.1361 83.7872 41.2253 83.7872C40.3145 83.7872 39.5761 84.6526 39.5761 85.7202C39.5761 86.7877 40.3145 87.6531 41.2253 87.6531Z" fill="#6C63FF"/>
<path d="M37.6175 96.9348C36.3546 94.6247 35.4239 92.0872 34.8626 89.4236C34.7068 88.682 34.5801 87.9333 34.4825 87.1773C34.4769 87.1382 34.4585 87.1033 34.4313 87.0798C34.4041 87.0563 34.3702 87.0462 34.3367 87.0514C34.3033 87.0567 34.2728 87.077 34.2519 87.1081C34.2309 87.1391 34.2211 87.1785 34.2244 87.2179C34.581 89.9701 35.3211 92.6348 36.4151 95.1056C36.721 95.7953 37.0534 96.4676 37.4122 97.1225C37.5026 97.2878 37.7074 97.099 37.6175 96.9348Z" fill="#3F3D56"/>
<path d="M34.2223 87.5174C35.1332 87.5174 35.8715 86.652 35.8715 85.5845C35.8715 84.5169 35.1332 83.6515 34.2223 83.6515C33.3115 83.6515 32.5732 84.5169 32.5732 85.5845C32.5732 86.652 33.3115 87.5174 34.2223 87.5174Z" fill="#6C63FF"/>
<path d="M32.5546 98.6449V94.8471C32.555 94.4695 32.6831 94.1075 32.9109 93.8405C33.1387 93.5735 33.4476 93.4233 33.7697 93.4229H41.3304C41.6526 93.4233 41.9614 93.5735 42.1892 93.8405C42.417 94.1075 42.5451 94.4695 42.5455 94.8471V98.6449C42.5451 99.0225 42.417 99.3845 42.1892 99.6515C41.9614 99.9185 41.6526 100.069 41.3304 100.069H33.7697C33.4476 100.069 33.1387 99.9185 32.9109 99.6515C32.6831 99.3845 32.555 99.0225 32.5546 98.6449Z" fill="#CCCCCC"/>
<path d="M100.333 97.5464H79.0009C78.4789 97.5464 78.0558 98.0423 78.0558 98.6541C78.0558 99.2658 78.4789 99.7618 79.0009 99.7618H100.333C100.855 99.7618 101.278 99.2658 101.278 98.6541C101.278 98.0423 100.855 97.5464 100.333 97.5464Z" fill="#CCCCCC"/>
<path d="M114.644 99.7618H90.6119C90.1466 99.7611 89.7004 99.5442 89.3714 99.1585C89.0424 98.7729 88.8573 98.25 88.8568 97.7046V82.1966C88.8573 81.6511 89.0424 81.1283 89.3714 80.7426C89.7004 80.3569 90.1466 80.14 90.6119 80.1394H114.644C115.109 80.14 115.555 80.3569 115.885 80.7426C116.214 81.1283 116.399 81.6511 116.399 82.1966V97.7046C116.399 98.25 116.214 98.7729 115.885 99.1585C115.555 99.5442 115.109 99.7611 114.644 99.7618Z" fill="#CCCCCC"/>
<path d="M102.628 91.8495C103.523 91.8495 104.248 90.9993 104.248 89.9505C104.248 88.9018 103.523 88.0516 102.628 88.0516C101.733 88.0516 101.008 88.9018 101.008 89.9505C101.008 90.9993 101.733 91.8495 102.628 91.8495Z" fill="white"/>
<path d="M175.804 120.65C175.804 118.203 167.946 116.219 158.253 116.219C148.559 116.219 140.701 118.203 140.701 120.65C140.701 122.218 143.932 123.595 148.802 124.383V148.659C148.802 149.205 148.987 149.728 149.316 150.114C149.645 150.5 150.092 150.717 150.557 150.717C151.023 150.717 151.469 150.5 151.798 150.114C152.127 149.728 152.312 149.205 152.312 148.659V124.82C154.168 124.989 156.167 125.081 158.253 125.081C160.338 125.081 162.338 124.989 164.193 124.82V148.659C164.193 149.205 164.378 149.728 164.707 150.114C165.037 150.5 165.483 150.717 165.949 150.717C166.414 150.717 166.86 150.5 167.19 150.114C167.519 149.728 167.704 149.205 167.704 148.659V124.383C172.574 123.595 175.804 122.218 175.804 120.65Z" fill="#CCCCCC"/>
<path d="M160.194 80.0943C164.369 80.0943 167.754 76.1268 167.754 71.2326C167.754 66.3384 164.369 62.3709 160.194 62.3709C156.018 62.3709 152.633 66.3384 152.633 71.2326C152.633 76.1268 156.018 80.0943 160.194 80.0943Z" fill="#2F2E41"/>
<path d="M141.378 147.053H138.068L136.493 132.087H141.379L141.378 147.053Z" fill="#FFB8B8"/>
<path d="M135.703 145.944H142.088V150.656H131.683C131.683 150.037 131.787 149.424 131.989 148.853C132.191 148.281 132.487 147.762 132.861 147.324C133.234 146.887 133.677 146.539 134.165 146.303C134.653 146.066 135.175 145.944 135.703 145.944Z" fill="#2F2E41"/>
<path d="M136.211 144.887L133.052 143.726L135.372 128.893L140.034 130.608L136.211 144.887Z" fill="#FFB8B8"/>
<path d="M131.079 141.838L137.171 144.079L135.967 148.574L126.04 144.923C126.198 144.332 126.454 143.784 126.793 143.31C127.132 142.835 127.547 142.444 128.015 142.157C128.483 141.871 128.994 141.695 129.52 141.64C130.046 141.586 130.576 141.653 131.079 141.838Z" fill="#2F2E41"/>
<path d="M137.288 138.916C137.143 138.916 136.999 138.885 136.863 138.825L134.428 137.755C134.154 137.634 133.927 137.401 133.788 137.1C133.648 136.799 133.606 136.449 133.668 136.115C134.281 132.883 136.371 121.882 137.515 115.981C138.872 108.982 158.669 107.681 159.511 107.629L159.581 107.625L161.808 110.905C162.612 113.937 162.357 116.302 161.05 117.934C157.234 122.696 145.84 119.741 144.481 119.367L138.425 137.999C138.337 138.269 138.181 138.501 137.978 138.665C137.775 138.828 137.534 138.916 137.288 138.916Z" fill="#2F2E41"/>
<path d="M140.798 141.131C140.653 141.131 140.509 141.101 140.373 141.041L137.938 139.971C137.665 139.849 137.437 139.617 137.298 139.316C137.159 139.015 137.116 138.665 137.178 138.33C137.791 135.099 139.881 124.097 141.025 118.196C142.382 111.197 162.18 109.897 163.022 109.845L163.091 109.84L165.318 113.121C166.123 116.152 165.868 118.517 164.56 120.149C160.744 124.911 149.35 121.956 147.992 121.582L141.936 140.214C141.847 140.484 141.691 140.716 141.488 140.88C141.285 141.044 141.044 141.131 140.798 141.131Z" fill="#2F2E41"/>
<path d="M133.752 95.5506C133.841 95.6908 133.921 95.8391 133.991 95.9941L147.308 97.6387L149.225 94.558L153.57 97.3413L149.805 104.817L133.472 99.9362C133.06 100.407 132.535 100.72 131.968 100.833C131.4 100.946 130.817 100.853 130.296 100.568C129.774 100.283 129.339 99.8186 129.048 99.2366C128.757 98.6546 128.624 97.9825 128.667 97.3099C128.71 96.6372 128.927 95.9958 129.288 95.471C129.65 94.9462 130.139 94.5628 130.691 94.3718C131.243 94.1808 131.831 94.1913 132.378 94.4018C132.925 94.6124 133.404 95.0131 133.752 95.5506Z" fill="#FFB8B8"/>
<path d="M164.7 114.376C164.507 114.375 164.318 114.321 164.147 114.217C161.484 112.63 156.298 109.882 151.489 109.307C151.325 109.288 151.165 109.229 151.021 109.133C150.878 109.038 150.752 108.908 150.654 108.753C150.553 108.596 150.481 108.416 150.442 108.225C150.403 108.033 150.399 107.835 150.428 107.642C150.862 104.826 151.858 97.6573 151.729 91.9117C151.692 90.145 152.168 88.4159 153.08 87.0086C153.992 85.6012 155.285 84.5994 156.747 84.1679C157.627 83.8957 158.521 83.6891 159.424 83.5494C160.461 83.3954 161.515 83.5283 162.5 83.9374C163.486 84.3465 164.376 85.0205 165.099 85.9054C165.823 86.7902 166.359 87.8614 166.666 89.033C166.973 90.2046 167.041 91.4441 166.865 92.6522C166.008 98.6065 165.143 106.923 165.895 112.728C165.929 112.988 165.902 113.254 165.815 113.497C165.728 113.74 165.586 113.95 165.404 114.104C165.2 114.28 164.953 114.375 164.7 114.376Z" fill="#6C63FF"/>
<path d="M151.976 99.2314C151.81 99.2311 151.646 99.1909 151.494 99.1133L148.024 97.3532C147.729 97.2027 147.496 96.9211 147.378 96.5701C147.259 96.219 147.264 95.8272 147.392 95.4805L150.074 88.2195C150.235 87.7804 150.469 87.3831 150.762 87.0501C151.055 86.7171 151.401 86.455 151.78 86.2789C152.16 86.1027 152.565 86.0158 152.973 86.0233C153.381 86.0307 153.783 86.1323 154.158 86.3223C154.532 86.5122 154.871 86.7868 155.155 87.1303C155.439 87.4738 155.662 87.8795 155.812 88.3242C155.962 88.7689 156.036 89.2439 156.029 89.7221C156.022 90.2002 155.935 90.6721 155.773 91.1108L153.091 98.3719C152.997 98.6268 152.841 98.844 152.643 98.9967C152.445 99.1494 152.213 99.2309 151.976 99.2314Z" fill="#6C63FF"/>
<path d="M159.917 81.0793C163.58 81.0793 166.549 77.5991 166.549 73.306C166.549 69.0129 163.58 65.5327 159.917 65.5327C156.254 65.5327 153.285 69.0129 153.285 73.306C153.285 77.5991 156.254 81.0793 159.917 81.0793Z" fill="#FFB8B8"/>
<path d="M153.166 69.4869C156.307 71.7345 159.849 73.1023 163.515 73.4837L162.424 71.9516C163.218 72.2959 164.054 72.4904 164.9 72.528C165.745 72.5126 166.631 72.1311 167.111 71.3153C167.325 70.9097 167.452 70.4495 167.481 69.974C167.511 69.4984 167.441 69.0215 167.28 68.5841C166.947 67.7115 166.43 66.9532 165.777 66.3813C164.619 65.3078 163.252 64.5867 161.799 64.2823C160.346 63.9779 158.851 64.0996 157.448 64.6366C156.485 64.9738 155.623 65.622 154.96 66.5069C154.331 67.416 153.121 68.2259 153.443 69.3337L153.166 69.4869Z" fill="#2F2E41"/>
<path d="M161.032 63.2138C158.941 60.7276 156.409 58.809 153.617 57.5932C151.824 56.8148 149.873 56.3339 147.999 56.7759C146.125 57.218 144.352 58.7376 143.83 60.8928C143.402 62.6551 143.843 64.5526 144.507 66.2116C145.17 67.8705 146.056 69.4089 146.593 71.1298C147.14 72.8857 147.305 74.774 147.072 76.6234C146.839 78.4728 146.215 80.2246 145.258 81.72C144.301 83.2153 143.04 84.4067 141.59 85.186C140.14 85.9654 138.547 86.308 136.956 86.1827C138.797 86.4721 140.495 87.4864 142.294 88.0262C144.094 88.5661 146.219 88.5295 147.556 87.0182C148.971 85.4191 149 82.8192 148.931 80.5167L148.626 70.2482C148.574 68.5026 148.53 66.7011 149.067 65.0718C149.604 63.4425 150.881 62.0159 152.371 62.0307C153.5 62.0419 154.5 62.8438 155.406 63.6347C156.311 64.4255 157.27 65.2692 158.395 65.3869C159.52 65.5045 160.804 64.5287 160.72 63.2086" fill="#2F2E41"/>
<path d="M130.205 89.8255L145.475 90.248L147.688 109.382L133.585 109.753L130.205 89.8255Z" fill="#E6E6E6"/>
<path d="M146.443 94.9176C146.532 95.0578 146.612 95.2062 146.682 95.3611L159.999 97.0057L161.916 93.925L166.261 96.7083L162.496 104.184L146.163 99.3032C145.751 99.774 145.226 100.087 144.659 100.2C144.092 100.313 143.508 100.22 142.987 99.9352C142.465 99.6501 142.03 99.1857 141.739 98.6036C141.448 98.0216 141.315 97.3496 141.358 96.6769C141.401 96.0042 141.618 95.3629 141.979 94.838C142.341 94.3132 142.83 93.9298 143.382 93.7388C143.934 93.5478 144.523 93.5583 145.069 93.7688C145.616 93.9794 146.095 94.3801 146.443 94.9176V94.9176Z" fill="#FFB8B8"/>
<path d="M164.667 99.5479C164.501 99.5476 164.337 99.5075 164.185 99.4299L160.715 97.6697C160.42 97.5192 160.187 97.2376 160.069 96.8866C159.95 96.5355 159.955 96.1437 160.083 95.797L162.765 88.536C162.927 88.097 163.16 87.6996 163.453 87.3666C163.746 87.0336 164.092 86.7716 164.471 86.5954C164.851 86.4192 165.256 86.3323 165.664 86.3398C166.072 86.3472 166.475 86.4488 166.849 86.6388C167.223 86.8287 167.562 87.1033 167.846 87.4468C168.13 87.7903 168.353 88.196 168.503 88.6407C168.653 89.0854 168.727 89.5604 168.72 90.0386C168.714 90.5167 168.627 90.9886 168.464 91.4273L165.782 98.6884C165.688 98.9434 165.532 99.1605 165.334 99.3132C165.136 99.4659 164.904 99.5475 164.667 99.5479Z" fill="#6C63FF"/>
<path d="M133.276 99.4453H25.8062C25.3407 99.4453 24.8943 99.662 24.5651 100.048C24.2359 100.434 24.051 100.957 24.051 101.502C24.051 102.048 24.2359 102.571 24.5651 102.957C24.8943 103.343 25.3407 103.56 25.8062 103.56H28.9115V148.343C28.9115 148.889 29.0964 149.412 29.4255 149.798C29.7547 150.183 30.2011 150.4 30.6666 150.4C31.1321 150.4 31.5785 150.183 31.9077 149.798C32.2368 149.412 32.4218 148.889 32.4218 148.343V107.513L52.0987 149.314C52.332 149.785 52.7152 150.129 53.1644 150.269C53.6135 150.41 54.0919 150.336 54.4945 150.063C54.8971 149.791 55.1911 149.342 55.3118 148.816C55.4326 148.29 55.3703 147.729 55.1387 147.257L34.5694 103.56H128.55V103.586L107.994 147.257C107.761 147.729 107.698 148.291 107.818 148.818C107.939 149.345 108.233 149.794 108.636 150.067C109.039 150.34 109.518 150.414 109.968 150.272C110.417 150.131 110.801 149.786 111.034 149.314L128.55 112.102V148.343C128.55 148.889 128.735 149.412 129.064 149.798C129.393 150.183 129.84 150.4 130.305 150.4C130.771 150.4 131.217 150.183 131.546 149.798C131.876 149.412 132.061 148.889 132.061 148.343V104.644L132.571 103.56H133.276C133.741 103.56 134.188 103.343 134.517 102.957C134.846 102.571 135.031 102.048 135.031 101.502C135.031 100.957 134.846 100.434 134.517 100.048C134.188 99.662 133.741 99.4453 133.276 99.4453Z" fill="#3F3D56"/>
<path d="M199.679 150.864H0.321743C0.236634 150.864 0.155096 150.824 0.0950022 150.754C0.0349079 150.683 0.00115967 150.587 0.00115967 150.487C0.00115967 150.388 0.0349079 150.292 0.0950022 150.221C0.155096 150.151 0.236634 150.111 0.321743 150.111H199.679C199.764 150.111 199.846 150.15 199.906 150.221C199.966 150.292 200 150.387 200 150.487C200 150.587 199.966 150.683 199.906 150.754C199.846 150.825 199.764 150.864 199.679 150.864Z" fill="#3F3D56"/>
</g>
<defs>
<clipPath id="clip0">
<rect width="200" height="150" fill="white" transform="translate(0 0.864258)"/>
</clipPath>
</defs>
</svg>
