<svg width="200" height="151" viewBox="0 0 200 151" fill="none" xmlns="http://www.w3.org/2000/svg">
<g clip-path="url(#clip0)">
<path d="M111.129 147.168C111.129 147.168 105.544 130.398 112.177 118.055C114.961 112.874 115.887 107.059 114.6 101.438C113.982 98.7703 113.088 96.1581 111.93 93.6343" stroke="#535461" stroke-width="2" stroke-miterlimit="10"/>
<path d="M116.07 85.8448C116.07 87.8993 111.858 93.8612 111.858 93.8612C111.858 93.8612 107.649 87.892 107.649 85.8448C107.683 84.8782 108.141 83.9613 108.927 83.2882C109.713 82.6151 110.764 82.2387 111.858 82.2387C112.952 82.2387 114.004 82.6151 114.789 83.2882C115.575 83.9613 116.034 84.8782 116.068 85.8448H116.07Z" fill="#2B468B"/>
<path d="M123.029 97.2205C121.766 98.9465 114.565 101.926 114.565 101.926C114.565 101.926 114.696 94.9011 115.959 93.1752C116.252 92.7516 116.639 92.3843 117.096 92.0948C117.552 91.8053 118.07 91.5995 118.618 91.4895C119.166 91.3795 119.733 91.3676 120.286 91.4544C120.84 91.5412 121.368 91.725 121.839 91.995C122.311 92.265 122.717 92.6157 123.033 93.0264C123.349 93.4371 123.569 93.8996 123.679 94.3866C123.79 94.8735 123.789 95.3752 123.677 95.8619C123.565 96.3486 123.344 96.8105 123.027 97.2205H123.029Z" fill="#2B468B"/>
<path d="M122.725 116.676C120.649 117.605 112.731 116.963 112.731 116.963C112.731 116.963 116.856 110.956 118.932 110.032C119.926 109.613 121.065 109.556 122.107 109.87C123.148 110.185 124.009 110.848 124.504 111.717C124.999 112.585 125.09 113.591 124.758 114.518C124.425 115.445 123.694 116.221 122.723 116.678L122.725 116.676Z" fill="#2B468B"/>
<path d="M118.743 131.349C116.875 132.571 108.949 133.124 108.949 133.124C108.949 133.124 111.867 126.591 113.735 125.366C114.18 125.075 114.685 124.865 115.222 124.747C115.759 124.629 116.317 124.605 116.864 124.678C117.411 124.75 117.937 124.917 118.411 125.17C118.885 125.422 119.298 125.754 119.627 126.147C119.956 126.54 120.194 126.987 120.328 127.461C120.461 127.936 120.488 128.429 120.406 128.913C120.324 129.396 120.134 129.861 119.849 130.28C119.564 130.699 119.188 131.064 118.743 131.355V131.349Z" fill="#2B468B"/>
<path d="M105.725 102.324C107.392 103.756 115.17 105.24 115.17 105.24C115.17 105.24 113.267 98.4183 111.6 96.9864C111.205 96.6383 110.736 96.3631 110.219 96.1766C109.703 95.9901 109.15 95.896 108.592 95.9C108.035 95.9039 107.483 96.0056 106.971 96.1994C106.458 96.3931 105.994 96.6749 105.605 97.0285C105.216 97.382 104.911 97.8003 104.707 98.259C104.503 98.7176 104.404 99.2076 104.415 99.7004C104.427 100.193 104.549 100.679 104.775 101.13C105.001 101.58 105.326 101.987 105.731 102.326L105.725 102.324Z" fill="#2B468B"/>
<path d="M101.316 119.538C103.392 120.464 111.31 119.825 111.31 119.825C111.31 119.825 107.187 113.818 105.107 112.887C104.612 112.654 104.069 112.51 103.51 112.465C102.951 112.42 102.388 112.474 101.853 112.624C101.319 112.774 100.823 113.017 100.396 113.338C99.9692 113.66 99.6191 114.054 99.3666 114.497C99.114 114.939 98.9641 115.422 98.9257 115.917C98.8872 116.412 98.961 116.908 99.1426 117.377C99.3242 117.846 99.61 118.279 99.9833 118.649C100.357 119.019 100.81 119.319 101.316 119.533V119.538Z" fill="#2B468B"/>
<path d="M99.6283 136.789C101.497 138.01 109.423 138.563 109.423 138.563C109.423 138.563 106.505 132.03 104.637 130.805C103.738 130.218 102.612 129.97 101.507 130.117C100.402 130.263 99.4085 130.792 98.7443 131.586C98.0802 132.38 97.8002 133.375 97.966 134.352C98.1318 135.329 98.7298 136.207 99.6283 136.794V136.789Z" fill="#2B468B"/>
<path opacity="0.25" d="M116.07 85.8448C116.07 87.8993 111.858 93.8612 111.858 93.8612C111.858 93.8612 107.649 87.892 107.649 85.8448C107.683 84.8782 108.141 83.9613 108.927 83.2882C109.713 82.6151 110.764 82.2387 111.858 82.2387C112.952 82.2387 114.004 82.6151 114.789 83.2882C115.575 83.9613 116.034 84.8782 116.068 85.8448H116.07Z" fill="black"/>
<path opacity="0.25" d="M123.029 97.2205C121.766 98.9465 114.565 101.926 114.565 101.926C114.565 101.926 114.696 94.9011 115.959 93.1752C116.252 92.7516 116.639 92.3843 117.096 92.0948C117.552 91.8053 118.07 91.5995 118.618 91.4895C119.166 91.3795 119.733 91.3676 120.286 91.4544C120.84 91.5412 121.368 91.725 121.839 91.995C122.311 92.265 122.717 92.6157 123.033 93.0264C123.349 93.4371 123.569 93.8996 123.679 94.3866C123.79 94.8735 123.789 95.3752 123.677 95.8619C123.565 96.3486 123.344 96.8105 123.027 97.2205H123.029Z" fill="black"/>
<path opacity="0.25" d="M122.725 116.676C120.649 117.605 112.731 116.963 112.731 116.963C112.731 116.963 116.856 110.956 118.932 110.032C119.926 109.613 121.065 109.556 122.107 109.87C123.148 110.185 124.009 110.848 124.504 111.717C124.999 112.585 125.09 113.591 124.758 114.518C124.425 115.445 123.694 116.221 122.723 116.678L122.725 116.676Z" fill="black"/>
<path opacity="0.25" d="M118.743 131.349C116.875 132.571 108.949 133.124 108.949 133.124C108.949 133.124 111.867 126.591 113.735 125.366C114.18 125.075 114.685 124.865 115.222 124.747C115.759 124.629 116.317 124.605 116.864 124.678C117.411 124.75 117.937 124.917 118.411 125.17C118.885 125.422 119.298 125.754 119.627 126.147C119.956 126.54 120.194 126.987 120.328 127.461C120.461 127.936 120.488 128.429 120.406 128.913C120.324 129.396 120.134 129.861 119.849 130.28C119.564 130.699 119.188 131.064 118.743 131.355V131.349Z" fill="black"/>
<path opacity="0.25" d="M105.725 102.324C107.392 103.756 115.17 105.24 115.17 105.24C115.17 105.24 113.267 98.4183 111.6 96.9864C111.205 96.6383 110.736 96.3631 110.219 96.1766C109.703 95.9901 109.15 95.896 108.592 95.9C108.035 95.9039 107.483 96.0056 106.971 96.1994C106.458 96.3931 105.994 96.6749 105.605 97.0285C105.216 97.382 104.911 97.8003 104.707 98.259C104.503 98.7176 104.404 99.2076 104.415 99.7004C104.427 100.193 104.549 100.679 104.775 101.13C105.001 101.58 105.326 101.987 105.731 102.326L105.725 102.324Z" fill="black"/>
<path opacity="0.25" d="M101.316 119.538C103.392 120.464 111.31 119.825 111.31 119.825C111.31 119.825 107.187 113.818 105.107 112.887C104.612 112.654 104.069 112.51 103.51 112.465C102.951 112.42 102.388 112.474 101.853 112.624C101.319 112.774 100.823 113.017 100.396 113.338C99.9692 113.66 99.6191 114.054 99.3666 114.497C99.114 114.939 98.9641 115.422 98.9257 115.917C98.8872 116.412 98.961 116.908 99.1426 117.377C99.3242 117.846 99.61 118.279 99.9833 118.649C100.357 119.019 100.81 119.319 101.316 119.533V119.538Z" fill="black"/>
<path opacity="0.25" d="M99.6283 136.789C101.497 138.01 109.423 138.563 109.423 138.563C109.423 138.563 106.505 132.03 104.637 130.805C103.738 130.218 102.612 129.97 101.507 130.117C100.402 130.263 99.4085 130.792 98.7443 131.586C98.0802 132.38 97.8002 133.375 97.966 134.352C98.1318 135.329 98.7298 136.207 99.6283 136.794V136.789Z" fill="black"/>
<path d="M29.9795 127.291C29.9795 127.291 24.3901 110.52 31.0267 98.1769C33.8111 92.9955 34.7371 87.1806 33.4497 81.5599C32.8316 78.8919 31.9381 76.2796 30.7803 73.7559" stroke="#535461" stroke-width="2" stroke-miterlimit="10"/>
<path d="M34.9261 65.9592C34.9261 68.0136 30.7146 73.9755 30.7146 73.9755C30.7146 73.9755 26.5031 68.0154 26.5031 65.9592C26.5372 64.9926 26.9957 64.0756 27.7814 63.4026C28.5671 62.7295 29.6183 62.3531 30.7125 62.3531C31.8067 62.3531 32.858 62.7295 33.6436 63.4026C34.4293 64.0756 34.8878 64.9926 34.922 65.9592H34.9261Z" fill="#2B468B"/>
<path d="M41.8891 77.3439C40.6263 79.0699 33.425 82.0499 33.425 82.0499C33.425 82.0499 33.5565 75.0245 34.8193 73.2985C35.1157 72.8804 35.5033 72.5185 35.9594 72.2339C36.4155 71.9493 36.9311 71.7477 37.4762 71.6408C38.0213 71.534 38.585 71.524 39.1345 71.6114C39.684 71.6988 40.2083 71.882 40.677 72.1501C41.1457 72.4183 41.5493 72.7662 41.8645 73.1735C42.1797 73.5809 42.4001 74.0395 42.5129 74.5228C42.6257 75.0061 42.6286 75.5044 42.5215 75.9887C42.4144 76.473 42.1995 76.9337 41.8891 77.3439Z" fill="#2B468B"/>
<path d="M41.5832 96.7977C39.5072 97.7233 31.5893 97.0844 31.5893 97.0844C31.5893 97.0844 35.7146 91.0771 37.7906 90.1534C38.2857 89.9203 38.8286 89.777 39.3873 89.732C39.9459 89.6869 40.5092 89.7409 41.0439 89.8909C41.5786 90.0409 42.0741 90.2838 42.5011 90.6053C42.9282 90.9269 43.2783 91.3206 43.5308 91.7633C43.7833 92.2061 43.9332 92.689 43.9717 93.1837C44.0101 93.6783 43.9364 94.1748 43.7548 94.644C43.5732 95.1131 43.2873 95.5454 42.914 95.9156C42.5408 96.2858 42.0876 96.5863 41.5811 96.7995L41.5832 96.7977Z" fill="#2B468B"/>
<path d="M37.6017 111.473C35.7331 112.694 27.807 113.248 27.807 113.248C27.807 113.248 30.7249 106.714 32.5935 105.489C33.492 104.902 34.6176 104.655 35.7226 104.801C36.8276 104.948 37.8215 105.476 38.4856 106.27C39.1498 107.065 39.4298 108.059 39.264 109.036C39.0982 110.013 38.5002 110.891 37.6017 111.478V111.473Z" fill="#2B468B"/>
<path d="M24.5831 82.4474C26.2505 83.8793 34.0287 85.3639 34.0287 85.3639C34.0287 85.3639 32.1252 78.5418 30.4579 77.1098C29.6535 76.437 28.5818 76.0713 27.4746 76.0919C26.3674 76.1125 25.3139 76.5177 24.5423 77.2197C23.7707 77.9218 23.3429 78.8642 23.3517 79.843C23.3605 80.8217 23.8051 81.7581 24.5893 82.4492L24.5831 82.4474Z" fill="#2B468B"/>
<path d="M20.1746 99.6615C22.2505 100.587 30.1684 99.9483 30.1684 99.9483C30.1684 99.9483 26.0432 93.941 23.9672 93.0172C23.472 92.7842 22.9291 92.6409 22.3705 92.5958C21.8118 92.5507 21.2485 92.6048 20.7138 92.7548C20.1791 92.9047 19.6837 93.1476 19.2566 93.4692C18.8296 93.7907 18.4795 94.1844 18.227 94.6272C17.9744 95.0699 17.8245 95.5528 17.7861 96.0475C17.7476 96.5422 17.8213 97.0387 18.003 97.5078C18.1846 97.977 18.4704 98.4093 18.8437 98.7794C19.217 99.1496 19.6701 99.4501 20.1766 99.6633L20.1746 99.6615Z" fill="#2B468B"/>
<path d="M18.4805 116.912C20.3491 118.133 28.2751 118.687 28.2751 118.687C28.2751 118.687 25.3573 112.153 23.4887 110.928C23.0438 110.638 22.5384 110.427 22.0015 110.309C21.4646 110.191 20.9067 110.168 20.3595 110.24C19.8124 110.313 19.2868 110.48 18.8127 110.732C18.3386 110.984 17.9253 111.316 17.5965 111.71C17.2677 112.103 17.0297 112.549 16.8961 113.024C16.7626 113.499 16.7361 113.992 16.8182 114.475C16.9003 114.959 17.0893 115.423 17.3745 115.842C17.6597 116.262 18.0355 116.627 18.4805 116.917V116.912Z" fill="#2B468B"/>
<path opacity="0.25" d="M34.9261 65.9592C34.9261 68.0136 30.7146 73.9755 30.7146 73.9755C30.7146 73.9755 26.5031 68.0154 26.5031 65.9592C26.5372 64.9926 26.9957 64.0756 27.7814 63.4026C28.5671 62.7295 29.6183 62.3531 30.7125 62.3531C31.8067 62.3531 32.858 62.7295 33.6436 63.4026C34.4293 64.0756 34.8878 64.9926 34.922 65.9592H34.9261Z" fill="black"/>
<path opacity="0.25" d="M41.8891 77.3439C40.6263 79.0699 33.425 82.0499 33.425 82.0499C33.425 82.0499 33.5565 75.0245 34.8193 73.2985C35.1157 72.8804 35.5033 72.5185 35.9594 72.2339C36.4155 71.9493 36.9311 71.7477 37.4762 71.6408C38.0213 71.534 38.585 71.524 39.1345 71.6114C39.684 71.6988 40.2083 71.882 40.677 72.1501C41.1457 72.4183 41.5493 72.7662 41.8645 73.1735C42.1797 73.5809 42.4001 74.0395 42.5129 74.5228C42.6257 75.0061 42.6286 75.5044 42.5215 75.9887C42.4144 76.473 42.1995 76.9337 41.8891 77.3439Z" fill="black"/>
<path opacity="0.25" d="M41.5832 96.7977C39.5072 97.7233 31.5893 97.0844 31.5893 97.0844C31.5893 97.0844 35.7146 91.0771 37.7906 90.1534C38.2857 89.9203 38.8286 89.777 39.3873 89.732C39.9459 89.6869 40.5092 89.7409 41.0439 89.8909C41.5786 90.0409 42.0741 90.2838 42.5011 90.6053C42.9282 90.9269 43.2783 91.3206 43.5308 91.7633C43.7833 92.2061 43.9332 92.689 43.9717 93.1837C44.0101 93.6783 43.9364 94.1748 43.7548 94.644C43.5732 95.1131 43.2873 95.5454 42.914 95.9156C42.5408 96.2858 42.0876 96.5863 41.5811 96.7995L41.5832 96.7977Z" fill="black"/>
<path opacity="0.25" d="M37.6017 111.473C35.7331 112.694 27.807 113.248 27.807 113.248C27.807 113.248 30.7249 106.714 32.5935 105.489C33.492 104.902 34.6176 104.655 35.7226 104.801C36.8276 104.948 37.8215 105.476 38.4856 106.27C39.1498 107.065 39.4298 108.059 39.264 109.036C39.0982 110.013 38.5002 110.891 37.6017 111.478V111.473Z" fill="black"/>
<path opacity="0.25" d="M24.5831 82.4474C26.2505 83.8793 34.0287 85.3639 34.0287 85.3639C34.0287 85.3639 32.1252 78.5418 30.4579 77.1098C29.6535 76.437 28.5818 76.0713 27.4746 76.0919C26.3674 76.1125 25.3139 76.5177 24.5423 77.2197C23.7707 77.9218 23.3429 78.8642 23.3517 79.843C23.3605 80.8217 23.8051 81.7581 24.5893 82.4492L24.5831 82.4474Z" fill="black"/>
<path opacity="0.25" d="M20.1746 99.6615C22.2505 100.587 30.1684 99.9483 30.1684 99.9483C30.1684 99.9483 26.0432 93.941 23.9672 93.0172C23.472 92.7842 22.9291 92.6409 22.3705 92.5958C21.8118 92.5507 21.2485 92.6048 20.7138 92.7548C20.1791 92.9047 19.6837 93.1476 19.2566 93.4692C18.8296 93.7907 18.4795 94.1844 18.227 94.6272C17.9744 95.0699 17.8245 95.5528 17.7861 96.0475C17.7476 96.5422 17.8213 97.0387 18.003 97.5078C18.1846 97.977 18.4704 98.4093 18.8437 98.7794C19.217 99.1496 19.6701 99.4501 20.1766 99.6633L20.1746 99.6615Z" fill="black"/>
<path opacity="0.25" d="M18.4805 116.912C20.3491 118.133 28.2751 118.687 28.2751 118.687C28.2751 118.687 25.3573 112.153 23.4887 110.928C23.0438 110.638 22.5384 110.427 22.0015 110.309C21.4646 110.191 20.9067 110.168 20.3595 110.24C19.8124 110.313 19.2868 110.48 18.8127 110.732C18.3386 110.984 17.9253 111.316 17.5965 111.71C17.2677 112.103 17.0297 112.549 16.8961 113.024C16.7626 113.499 16.7361 113.992 16.8182 114.475C16.9003 114.959 17.0893 115.423 17.3745 115.842C17.6597 116.262 18.0355 116.627 18.4805 116.917V116.912Z" fill="black"/>
<path d="M50.7946 132.513C50.7946 132.513 47.77 123.438 51.3614 116.75C52.8888 113.956 53.3492 110.799 52.6735 107.754C52.3413 106.31 51.8602 104.897 51.2361 103.531" stroke="#535461" stroke-width="2" stroke-miterlimit="10"/>
<path d="M53.4682 99.3076C53.4682 100.42 51.1889 103.647 51.1889 103.647C51.1889 103.647 48.9097 100.42 48.9097 99.3076C48.9097 98.7733 49.1498 98.2609 49.5772 97.8831C50.0047 97.5053 50.5844 97.2931 51.1889 97.2931C51.7934 97.2931 52.3732 97.5053 52.8006 97.8831C53.228 98.2609 53.4682 98.7733 53.4682 99.3076Z" fill="#2B468B"/>
<path d="M57.2361 105.471C56.5524 106.406 52.655 108.012 52.655 108.012C52.655 108.012 52.7248 104.201 53.4107 103.275C53.5734 103.053 53.7841 102.861 54.0306 102.711C54.2771 102.561 54.5547 102.455 54.8475 102.4C55.1402 102.344 55.4425 102.341 55.737 102.388C56.0314 102.436 56.3123 102.535 56.5637 102.679C56.815 102.823 57.0318 103.009 57.2017 103.227C57.3716 103.445 57.4913 103.69 57.5539 103.949C57.6166 104.207 57.6209 104.475 57.5667 104.735C57.5126 104.995 57.4009 105.243 57.2382 105.466L57.2361 105.471Z" fill="#2B468B"/>
<path d="M57.0719 116.005C55.9487 116.505 51.6612 116.159 51.6612 116.159C51.6612 116.159 53.8953 112.907 55.0185 112.406C55.5584 112.165 56.1845 112.124 56.7588 112.291C57.3332 112.458 57.8088 112.82 58.0811 113.298C58.3534 113.775 58.4 114.328 58.2108 114.836C58.0215 115.343 57.6118 115.764 57.0719 116.005Z" fill="#2B468B"/>
<path d="M54.9179 123.957C53.9055 124.62 49.614 124.917 49.614 124.917C49.614 124.917 51.193 121.378 52.2053 120.718C52.6914 120.4 53.3004 120.266 53.8985 120.345C54.4965 120.424 55.0345 120.709 55.3942 121.139C55.754 121.568 55.9058 122.107 55.8165 122.635C55.7272 123.164 55.4039 123.639 54.9179 123.957Z" fill="#2B468B"/>
<path d="M47.8686 108.235C48.7721 109.01 52.9795 109.814 52.9795 109.814C52.9795 109.814 51.9528 106.121 51.0452 105.346C50.6114 104.973 50.0281 104.769 49.4235 104.776C48.8189 104.784 48.2426 105.004 47.8213 105.387C47.4001 105.771 47.1684 106.286 47.1773 106.821C47.1861 107.355 47.4348 107.864 47.8686 108.237V108.235Z" fill="#2B468B"/>
<path d="M45.4825 117.554C46.6057 118.055 50.8932 117.709 50.8932 117.709C50.8932 117.709 48.6653 114.456 47.5339 113.956C47.2665 113.836 46.9752 113.765 46.6766 113.745C46.378 113.726 46.0779 113.758 45.7935 113.841C45.5091 113.924 45.246 114.055 45.0191 114.228C44.7922 114.401 44.6061 114.611 44.4712 114.848C44.3364 115.084 44.2556 115.341 44.2333 115.605C44.2111 115.869 44.2479 116.134 44.3416 116.386C44.4353 116.637 44.5841 116.87 44.7795 117.07C44.9749 117.271 45.2131 117.435 45.4805 117.554H45.4825Z" fill="#2B468B"/>
<path d="M44.5585 126.894C45.5708 127.556 49.8624 127.854 49.8624 127.854C49.8624 127.854 48.2834 124.315 47.271 123.654C47.0304 123.497 46.757 123.383 46.4665 123.319C46.176 123.255 45.874 123.242 45.5779 123.281C45.2818 123.32 44.9973 123.41 44.7407 123.547C44.484 123.683 44.2602 123.863 44.0821 124.075C43.904 124.288 43.7751 124.53 43.7026 124.786C43.6302 125.043 43.6156 125.31 43.6599 125.572C43.7041 125.833 43.8062 126.085 43.9604 126.312C44.1146 126.539 44.3179 126.736 44.5585 126.894Z" fill="#2B468B"/>
<path opacity="0.5" d="M53.4682 99.3076C53.4682 100.42 51.1889 103.647 51.1889 103.647C51.1889 103.647 48.9097 100.42 48.9097 99.3076C48.9097 98.7733 49.1498 98.2609 49.5772 97.8831C50.0047 97.5053 50.5844 97.2931 51.1889 97.2931C51.7934 97.2931 52.3732 97.5053 52.8006 97.8831C53.228 98.2609 53.4682 98.7733 53.4682 99.3076Z" fill="white"/>
<path opacity="0.5" d="M57.2361 105.471C56.5524 106.406 52.655 108.012 52.655 108.012C52.655 108.012 52.7248 104.201 53.4107 103.275C53.5734 103.053 53.7841 102.861 54.0306 102.711C54.2771 102.561 54.5547 102.455 54.8475 102.4C55.1402 102.344 55.4425 102.341 55.737 102.388C56.0314 102.436 56.3123 102.535 56.5637 102.679C56.815 102.823 57.0318 103.009 57.2017 103.227C57.3716 103.445 57.4913 103.69 57.5539 103.949C57.6166 104.207 57.6209 104.475 57.5667 104.735C57.5126 104.995 57.4009 105.243 57.2382 105.466L57.2361 105.471Z" fill="white"/>
<path opacity="0.5" d="M57.0719 116.005C55.9487 116.505 51.6612 116.159 51.6612 116.159C51.6612 116.159 53.8953 112.907 55.0185 112.406C55.5584 112.165 56.1845 112.124 56.7588 112.291C57.3332 112.458 57.8088 112.82 58.0811 113.298C58.3534 113.775 58.4 114.328 58.2108 114.836C58.0215 115.343 57.6118 115.764 57.0719 116.005Z" fill="white"/>
<path opacity="0.5" d="M54.9179 123.957C53.9055 124.62 49.614 124.917 49.614 124.917C49.614 124.917 51.193 121.378 52.2053 120.718C52.6914 120.4 53.3004 120.266 53.8985 120.345C54.4965 120.424 55.0345 120.709 55.3942 121.139C55.754 121.568 55.9058 122.107 55.8165 122.635C55.7272 123.164 55.4039 123.639 54.9179 123.957Z" fill="white"/>
<path opacity="0.5" d="M47.8686 108.235C48.7721 109.01 52.9795 109.814 52.9795 109.814C52.9795 109.814 51.9528 106.121 51.0452 105.346C50.6114 104.973 50.0281 104.769 49.4235 104.776C48.8189 104.784 48.2426 105.004 47.8213 105.387C47.4001 105.771 47.1684 106.286 47.1773 106.821C47.1861 107.355 47.4348 107.864 47.8686 108.237V108.235Z" fill="white"/>
<path opacity="0.5" d="M45.4825 117.554C46.6057 118.055 50.8932 117.709 50.8932 117.709C50.8932 117.709 48.6653 114.456 47.5339 113.956C47.2665 113.836 46.9752 113.765 46.6766 113.745C46.378 113.726 46.0779 113.758 45.7935 113.841C45.5091 113.924 45.246 114.055 45.0191 114.228C44.7922 114.401 44.6061 114.611 44.4712 114.848C44.3364 115.084 44.2556 115.341 44.2333 115.605C44.2111 115.869 44.2479 116.134 44.3416 116.386C44.4353 116.637 44.5841 116.87 44.7795 117.07C44.9749 117.271 45.2131 117.435 45.4805 117.554H45.4825Z" fill="white"/>
<path opacity="0.5" d="M44.5585 126.894C45.5708 127.556 49.8624 127.854 49.8624 127.854C49.8624 127.854 48.2834 124.315 47.271 123.654C47.0304 123.497 46.757 123.383 46.4665 123.319C46.176 123.255 45.874 123.242 45.5779 123.281C45.2818 123.32 44.9973 123.41 44.7407 123.547C44.484 123.683 44.2602 123.863 44.0821 124.075C43.904 124.288 43.7751 124.53 43.7026 124.786C43.6302 125.043 43.6156 125.31 43.6599 125.572C43.7041 125.833 43.8062 126.085 43.9604 126.312C44.1146 126.539 44.3179 126.736 44.5585 126.894Z" fill="white"/>
<path d="M16.46 79.2604C16.5416 79.2604 16.62 79.2317 16.6777 79.1807C16.7355 79.1296 16.768 79.0604 16.768 78.9882C16.768 78.916 16.7355 78.8468 16.6777 78.7957C16.62 78.7447 16.5416 78.716 16.46 78.716C16.3783 78.716 16.2999 78.7447 16.2422 78.7957C16.1844 78.8468 16.1519 78.916 16.1519 78.9882C16.1519 79.0604 16.1844 79.1296 16.2422 79.1807C16.2999 79.2317 16.3783 79.2604 16.46 79.2604Z" fill="#72351C"/>
<path d="M73.423 20.6906L75.6673 24.471C76.1355 25.2586 76.6098 26.0644 76.694 26.9193C76.809 27.9737 76.3367 29.0263 76.4497 30.0808C76.5544 31.0499 77.1458 31.9574 77.8337 32.8031C82.1047 38.0118 90.6694 41.2459 99.076 40.8249C95.8973 42.0118 92.2649 42.373 88.7125 42.7142C86.9959 42.8793 85.2464 43.0445 83.54 42.8358C81.9774 42.6543 80.5215 42.1516 79.1335 41.6035C76.386 40.5145 73.7741 39.177 71.8973 37.3748C70.0205 35.5726 68.9528 33.2514 69.4907 31.0354C69.6797 30.2568 70.0595 29.5055 70.2135 28.7232C70.4456 27.5399 70.156 26.3222 70.4764 25.1516C70.7556 24.1334 71.4805 23.2042 71.8049 22.1933C72.0985 21.2859 71.1006 19.9719 71.846 19.2895C72.6489 19.4565 73.1006 20.1461 73.423 20.6906Z" fill="url(#paint0_linear)"/>
<path d="M49.4291 82.1515L60.9589 68.5399L59.1376 52.4818L84.7187 50.6579L84.6242 47.422L90.2875 58.0681L107.48 72.5526L107.6 72.7033L111.54 70.9628L96.5503 54.9319L89.4784 44.284L89.462 44.235C87.7043 39.235 82.4641 35.7396 76.4127 35.5236C74.9096 35.4709 73.6181 35.3748 73.0944 35.2042C71.4764 34.6815 72.2854 29.4455 72.2854 29.4455L61.3634 30.4909C61.3634 30.4909 62.3799 32.6325 63.1293 34.912C63.5285 36.1563 63.4463 37.4828 62.8958 38.6811C62.3453 39.8794 61.358 40.8811 60.0903 41.5272C56.7597 43.2622 50.0513 46.2659 50.9486 49.2532C52.3655 53.9719 53.8809 65.0426 53.8809 65.0426L47.2053 81.6216" fill="url(#paint1_linear)"/>
<path d="M47.2033 81.627C47.2033 81.627 38.1006 89.1316 41.9446 89.1316C45.7885 89.1316 49.4291 82.1515 49.4291 82.1515" fill="url(#paint2_linear)"/>
<path d="M111.727 71.157L111.54 70.9574L107.598 72.7015C108.378 73.6652 112.791 78.9465 115.366 78.3113C118.201 77.6144 111.727 71.157 111.727 71.157Z" fill="url(#paint3_linear)"/>
<path d="M81.5893 122.99C81.5893 122.99 83.6119 131.883 80.577 133.985C77.5421 136.086 75.7228 135.554 75.7228 135.554V123.513L81.5893 122.99Z" fill="url(#paint4_linear)"/>
<path d="M43.4374 87.3911C43.4374 87.3911 39.7187 91.2278 41.1355 92.1007C42.5524 92.9737 45.7906 92.4474 45.9959 94.3748C46.2013 96.3022 53.2772 95.7704 53.2772 95.7704C53.2772 95.7704 60.9631 99.9592 67.4456 98.912C73.9282 97.8648 85.8316 96.4619 85.8316 96.4619L92.3039 96.2804C92.3039 96.2804 97.5688 94.0118 98.5811 94.3748C99.5935 94.7378 103.435 91.7577 102.021 89.6561C100.606 87.5544 43.4374 87.3911 43.4374 87.3911Z" fill="url(#paint5_linear)"/>
<g opacity="0.2">
<path opacity="0.2" d="M43.4374 87.3911C43.4374 87.3911 39.7187 91.2278 41.1355 92.1007C42.5524 92.9737 45.7906 92.4474 45.9959 94.3748C46.2013 96.3022 53.2772 95.7704 53.2772 95.7704C53.2772 95.7704 60.9631 99.9592 67.4456 98.912C73.9282 97.8648 85.8316 96.4619 85.8316 96.4619L92.3039 96.2804C92.3039 96.2804 97.5688 94.0118 98.5811 94.3748C99.5935 94.7378 103.435 91.7577 102.021 89.6561C100.606 87.5544 43.4374 87.3911 43.4374 87.3911Z" fill="url(#paint6_linear)"/>
</g>
<path d="M87.2526 93.1461L84.421 109.028C84.421 109.028 86.6468 113.217 82.1951 119.5L81.3861 122.99L75.924 123.513L73.9035 88.2587L87.2526 93.1461Z" fill="url(#paint7_linear)"/>
<g opacity="0.1">
<path opacity="0.1" d="M61.5647 90.8775L67.2279 103.449C67.2279 103.449 68.2403 108.685 67.844 109.732C67.4477 110.779 66.8316 120.901 69.0575 124.043C71.2834 127.184 74.3162 139.052 74.3162 139.052L80.384 138.529C80.384 138.529 78.1499 135.21 78.1499 133.112V123.164C78.1499 123.164 78.1499 116.358 76.7331 111.471L77.2731 108.204C77.451 107.133 77.4162 106.042 77.1704 104.981L73.4969 89.1316L61.5647 90.8775Z" fill="url(#paint8_linear)"/>
</g>
<path d="M61.1602 90.8775L66.8234 103.449C66.8234 103.449 67.8357 108.685 67.4394 109.732C67.0431 110.779 66.4271 120.901 68.653 124.043C70.8788 127.184 73.9117 139.052 73.9117 139.052L79.9795 138.529C79.9795 138.529 77.7454 135.21 77.7454 133.112V123.164C77.7454 123.164 77.7454 116.358 76.3285 111.471L76.8686 108.204C77.0464 107.133 77.0117 106.042 76.7659 104.981L73.1006 89.1316L61.1602 90.8775Z" fill="url(#paint9_linear)"/>
<path d="M73.9035 139.046C73.9035 139.046 75.1171 142.188 73.9035 143.061C72.69 143.934 73.1006 149.692 73.1006 149.692C73.1006 149.692 80.5852 152.309 81.5955 148.123C81.5955 148.123 79.5729 140.27 79.9774 138.524L73.9035 139.046Z" fill="url(#paint10_linear)"/>
<g opacity="0.1">
<path opacity="0.1" d="M69.4538 50.3875C69.4538 50.3875 79.3655 44.4528 84.6242 50.3875C84.6242 50.3875 85.8378 57.7178 84.6242 59.1134C84.6242 59.1134 83.6119 64.8721 85.2402 65.745C86.8686 66.618 88.0719 69.4093 88.0719 69.4093C88.0719 69.4093 93.9384 71.6779 94.7474 73.2496C95.5565 74.8213 104.051 90.5272 104.051 90.5272C104.051 90.5272 92.7248 95.7632 88.6797 95.2459C84.6345 94.7287 75.7433 95.2459 75.7433 95.2459C75.7433 95.2459 70.8891 90.7087 62.191 92.8031C53.4928 94.8975 41.9445 89.4746 41.9445 89.4746L59.7536 68.7124C59.7536 68.7124 62.7885 65.2223 61.3717 61.2078C59.9548 57.1933 59.7536 51.7849 59.7536 51.7849C59.7536 51.7849 60.3511 47.5962 69.4538 50.3875Z" fill="url(#paint11_linear)"/>
</g>
<path d="M69.4538 50.039C69.4538 50.039 79.3655 44.1044 84.6242 50.039C84.6242 50.039 85.8378 57.3693 84.6242 58.765C84.6242 58.765 83.6119 64.5236 85.2402 65.3966C86.8686 66.2695 88.0719 69.0608 88.0719 69.0608C88.0719 69.0608 93.9384 71.3294 94.7474 72.9011C95.5565 74.4728 104.051 90.1788 104.051 90.1788C104.051 90.1788 92.7248 95.4147 88.6797 94.8975C84.6345 94.3802 75.7433 94.8975 75.7433 94.8975C75.7433 94.8975 70.8891 90.3603 62.191 92.4546C53.4928 94.549 41.963 89.1388 41.963 89.1388L59.7536 68.3639C59.7536 68.3639 62.7885 64.8739 61.3717 60.8593C59.9548 56.8448 59.7536 51.4347 59.7536 51.4347C59.7536 51.4347 60.3511 47.2459 69.4538 50.039Z" fill="url(#paint12_linear)"/>
<path opacity="0.1" d="M74.4107 36.1461C74.4107 36.1461 80.9179 35.6797 82.5462 37.569L74.4107 36.1461Z" fill="url(#paint13_linear)"/>
<path opacity="0.1" d="M57.4661 44.235C57.4661 44.235 62.1889 40.3439 64.8213 40.9301L57.4661 44.235Z" fill="url(#paint14_linear)"/>
<g opacity="0.1">
<path opacity="0.1" d="M61.9692 30.4909C61.9692 30.4909 62.3799 31.3729 62.885 32.6053C64.2825 33.5565 65.9817 34.0974 67.7444 34.1521C69.5072 34.2067 71.2451 33.7725 72.7146 32.9102C72.6648 31.753 72.7239 30.5941 72.8912 29.4455L61.9692 30.4909Z" fill="url(#paint15_linear)"/>
</g>
<path d="M67.4312 34.157C72.0117 34.157 75.7248 30.9531 75.7248 27.0009C75.7248 23.0487 72.0117 19.8448 67.4312 19.8448C62.8508 19.8448 59.1376 23.0487 59.1376 27.0009C59.1376 30.9531 62.8508 34.157 67.4312 34.157Z" fill="url(#paint16_linear)"/>
<g opacity="0.1">
<path opacity="0.1" d="M75.9753 21.1897C75.5421 19.8884 74.8111 17.4692 73.2813 17.1679C72.948 17.1236 72.6187 17.0587 72.2957 16.9737C71.6797 16.7668 71.2464 16.2786 70.733 15.912C69.5914 15.0989 67.6345 16.1243 66.1622 15.9937C64.7803 15.8702 63.3306 15.7868 62.0554 16.2441C59.4825 17.1515 58.5031 19.8104 56.655 21.6053C55.271 22.9483 53.3881 23.8104 51.6386 24.7831C49.8891 25.7559 48.1622 26.9519 47.4127 28.627C46.8829 29.8122 46.8953 31.1243 47.0226 32.3911C47.3761 35.8712 48.5252 39.2516 50.4004 42.3276C50.9384 43.2096 51.5421 44.0808 51.807 45.0499C52.0718 46.0191 51.9404 47.137 51.1478 47.863C50.0308 48.8884 48.1314 48.7704 46.6304 49.3149C47.8768 50.4147 49.731 50.8993 51.5113 50.8339C53.2916 50.7686 55.002 50.1951 56.5482 49.4292C60.5318 47.4565 63.5482 44.1661 65.193 40.4692C65.9569 38.7505 66.4415 36.8648 65.9753 35.0663C65.5749 33.5236 64.5154 32.1806 63.6242 30.7995C62.733 29.4183 61.9815 27.8594 62.2587 26.2967C62.5174 24.8902 63.6181 23.6706 64.9836 22.8684C66.1129 22.2042 68.1129 21.2986 69.5359 21.3512C71.1109 21.4056 76.4004 22.4927 75.9753 21.1897Z" fill="url(#paint17_linear)"/>
</g>
<path d="M75.77 21.0154C75.3367 19.7142 74.6057 17.2949 73.076 16.9937C72.7427 16.9494 72.4133 16.8845 72.0903 16.7995C71.4743 16.5926 71.0411 16.1044 70.5277 15.7378C69.386 14.9247 67.4291 15.9501 65.9569 15.8194C64.5749 15.696 63.1252 15.6125 61.8501 16.0699C59.2772 16.9773 58.2977 19.6361 56.4497 21.431C55.0657 22.7741 53.1828 23.6361 51.4333 24.6089C49.6838 25.5817 47.9569 26.7777 47.2074 28.4528C46.6776 29.6379 46.6899 30.9501 46.8172 32.2169C47.1708 35.697 48.3199 39.0774 50.1951 42.1534C50.7331 43.0354 51.3368 43.9065 51.6016 44.8757C51.8665 45.8448 51.7351 46.9628 50.9425 47.6888C49.8255 48.7142 47.9261 48.5962 46.425 49.1407C47.6715 50.2405 49.5257 50.7251 51.3059 50.6597C53.0862 50.5944 54.7967 50.0209 56.3429 49.255C60.3265 47.2822 63.3429 43.9918 64.9877 40.2949C65.7515 38.5762 66.2361 36.6906 65.77 34.892C65.3696 33.3494 64.3101 32.0064 63.4189 30.6252C62.5277 29.2441 61.7762 27.6851 62.0534 26.1225C62.3121 24.716 63.4127 23.4964 64.7782 22.6942C65.9076 22.03 67.9076 21.1243 69.3306 21.177C70.9076 21.235 76.1992 22.324 75.77 21.0154Z" fill="url(#paint18_linear)"/>
<path opacity="0.1" d="M84.1171 65.3094C84.1171 65.3094 80.2731 67.4038 75.8234 67.0553L84.1171 65.3094Z" fill="url(#paint19_linear)"/>
<path opacity="0.1" d="M88.1622 68.6252C88.1622 68.6252 78.2505 71.941 74.4045 71.5926L88.1622 68.6252Z" fill="url(#paint20_linear)"/>
<path opacity="0.1" d="M61.8686 60.0735C61.8686 60.0735 72.5893 60.9464 74.4086 59.2005C74.4086 59.2005 80.2752 60.7704 84.1171 59.2005" fill="url(#paint21_linear)"/>
<path d="M73.6776 22.2641L75.809 25.9392C76.2526 26.7051 76.7043 27.4891 76.7926 28.3203C76.9035 29.3458 76.4538 30.3693 76.5606 31.3948C76.6592 32.3367 77.2218 33.2205 77.8748 34.0354C81.9302 39.1007 90.0575 42.2459 98.039 41.8394C95.0226 42.9937 91.5729 43.3439 88.2012 43.6761C86.5709 43.8358 84.9158 43.9973 83.2916 43.794C81.8091 43.6125 80.4169 43.128 79.1088 42.5962C76.501 41.5418 74.0205 40.2369 72.2403 38.4837C70.46 36.7305 69.4374 34.4909 69.9466 32.3312C70.1253 31.5744 70.4867 30.843 70.6325 30.0826C70.8542 28.932 70.577 27.7487 70.883 26.6089C71.1479 25.6198 71.8357 24.716 72.1437 23.7323C72.423 22.843 71.4764 21.5726 72.1828 20.9029C72.9425 21.0663 73.3696 21.7341 73.6776 22.2641Z" fill="#252223"/>
<path d="M50.9035 82.0336L61.846 68.785L60.117 53.177L84.3942 51.4056L84.3039 48.2586L89.6797 58.6035L106 72.6888L106.113 72.834L109.856 71.1443L95.6386 55.5545L88.9179 45.2096L88.9014 45.1624C88.086 42.7898 86.4556 40.7001 84.2363 39.1831C82.017 37.6661 79.3187 36.7969 76.5154 36.696C75.078 36.6452 73.8645 36.5508 73.3655 36.3857C71.8296 35.8757 72.5975 30.7849 72.5975 30.7849L62.23 31.8031C62.23 31.8031 63.193 33.8866 63.9055 36.1007C64.2885 37.3041 64.2136 38.5854 63.6924 39.7475C63.1711 40.9095 62.2324 41.8881 61.0205 42.5327C57.8583 44.2205 51.4908 47.1407 52.3429 50.0445C53.6879 54.6271 55.1273 65.402 55.1273 65.402L48.7906 81.5236" fill="#F0898B"/>
<path d="M48.7906 81.5181C48.7906 81.5181 40.1499 88.8158 43.7988 88.8158C47.4476 88.8158 50.9035 82.0336 50.9035 82.0336" fill="#FDB797"/>
<path d="M110.037 71.3367L109.856 71.1443L106.115 72.8412C106.854 73.7777 111.043 78.912 113.489 78.2949C116.181 77.6161 110.037 71.3367 110.037 71.3367Z" fill="#FDB797"/>
<path d="M81.4291 121.736C81.4291 121.736 83.3491 130.391 80.4682 132.427C77.5873 134.464 75.8604 133.956 75.8604 133.956V122.246L81.4291 121.736Z" fill="#333333"/>
<path d="M45.2156 87.1152C45.2156 87.1152 41.6838 90.8521 43.0308 91.6996C44.3778 92.5472 47.4477 92.039 47.6386 93.9065C47.8296 95.774 54.5503 95.2641 54.5503 95.2641C54.5503 95.2641 61.846 99.3366 67.9897 98.3185C74.1335 97.3003 85.462 95.9428 85.462 95.9428L91.6058 95.7722C91.6058 95.7722 96.5975 93.5653 97.5606 93.9047C98.5236 94.2441 102.168 91.3639 100.825 89.3221C99.4826 87.2804 45.2156 87.1152 45.2156 87.1152Z" fill="#F0898B"/>
<path opacity="0.2" d="M45.2156 87.1152C45.2156 87.1152 41.6838 90.8521 43.0308 91.6996C44.3778 92.5472 47.4477 92.039 47.6386 93.9065C47.8296 95.774 54.5503 95.2641 54.5503 95.2641C54.5503 95.2641 61.846 99.3366 67.9897 98.3185C74.1335 97.3003 85.462 95.9428 85.462 95.9428L91.6058 95.7722C91.6058 95.7722 96.5975 93.5653 97.5606 93.9047C98.5236 94.2441 102.168 91.3639 100.825 89.3221C99.4826 87.2804 45.2156 87.1152 45.2156 87.1152Z" fill="black"/>
<path d="M86.8049 92.7178L84.1171 108.168C84.1171 108.168 86.23 112.24 82.0041 118.349L81.2361 121.743L76.0513 122.253L74.1273 87.9664L86.8049 92.7178Z" fill="#FDB797"/>
<path opacity="0.1" d="M62.423 90.5127L67.7987 102.723C67.7987 102.723 68.7597 107.814 68.3757 108.832C67.9918 109.85 67.4148 119.692 69.5277 122.747C71.6406 125.801 74.5195 137.34 74.5195 137.34L80.2875 136.843C80.2875 136.843 78.1745 133.618 78.1745 131.58V121.907C78.1745 121.907 78.1745 115.288 76.8296 110.536L77.3429 107.358C77.5111 106.317 77.4778 105.258 77.2443 104.226L73.7536 88.8158L62.423 90.5127Z" fill="black"/>
<path d="M62.039 90.5127L67.4148 102.723C67.4148 102.723 68.3758 107.814 67.9918 108.832C67.6078 109.85 67.0308 119.692 69.1438 122.747C71.2567 125.801 74.1273 137.348 74.1273 137.348L79.8932 136.843C79.8932 136.843 77.7803 133.618 77.7803 131.58V121.907C77.7803 121.907 77.7803 115.288 76.4353 110.536L76.9487 107.358C77.1169 106.317 77.0836 105.258 76.8501 104.226L73.3594 88.8158L62.039 90.5127Z" fill="#FDB797"/>
<path d="M74.1273 137.348C74.1273 137.348 75.2793 140.402 74.1273 141.251C72.9754 142.101 73.3594 147.7 73.3594 147.7C73.3594 147.7 80.4641 150.24 81.423 146.171C81.423 146.171 79.5031 138.534 79.8871 136.838L74.1273 137.348Z" fill="#333333"/>
<path opacity="0.1" d="M69.9097 51.1425C69.9097 51.1425 79.3183 45.373 84.3101 51.1425C84.3101 51.1425 85.462 58.2695 84.3101 59.6271C84.3101 59.6271 83.3491 65.2278 84.8871 66.0753C86.4251 66.9229 87.575 69.6398 87.575 69.6398C87.575 69.6398 93.1437 71.8467 93.9117 73.373C94.6797 74.8993 102.741 90.1733 102.741 90.1733C102.741 90.1733 91.9918 95.2641 88.1499 94.7541C84.308 94.2441 75.8624 94.7541 75.8624 94.7541C75.8624 94.7541 71.2526 90.3421 62.9979 92.3784C54.7433 94.4147 43.7988 89.1534 43.7988 89.1534L60.694 68.9664C60.694 68.9664 63.5688 65.5726 62.23 61.6688C60.8912 57.765 60.694 52.5054 60.694 52.5054C60.694 52.5054 61.271 48.4274 69.9097 51.1425Z" fill="black"/>
<path d="M69.9097 50.8031C69.9097 50.8031 79.3183 45.0336 84.3101 50.8031C84.3101 50.8031 85.462 57.9301 84.3101 59.2876C84.3101 59.2876 83.3491 64.8884 84.8871 65.7359C86.4251 66.5835 87.575 69.3003 87.575 69.3003C87.575 69.3003 93.1417 71.5072 93.9097 73.0335C94.6776 74.5599 102.739 89.8339 102.739 89.8339C102.739 89.8339 91.9918 94.9192 88.1499 94.4147C84.308 93.9101 75.8624 94.4147 75.8624 94.4147C75.8624 94.4147 71.2526 90.0027 62.9979 92.039C54.7433 94.0753 43.7988 88.8139 43.7988 88.8139L60.694 68.6216C60.694 68.6216 63.5688 65.2277 62.23 61.3239C60.8912 57.4201 60.694 52.1606 60.694 52.1606C60.694 52.1606 61.271 48.0953 69.9097 50.8031Z" fill="#F0898B"/>
<path opacity="0.1" d="M74.616 37.2949C74.616 37.2949 80.7926 36.8412 82.3327 38.6742L74.616 37.2949Z" fill="#72351C"/>
<path opacity="0.1" d="M58.5318 45.1588C58.5318 45.1588 63.0123 41.3748 65.5133 41.9465L58.5318 45.1588Z" fill="#72351C"/>
<path opacity="0.1" d="M62.807 31.7976C62.807 31.7976 63.2033 32.6543 63.6756 33.8521C64.9912 34.7756 66.6068 35.3025 68.2858 35.3557C69.9648 35.409 71.619 34.9857 73.0062 34.1479C72.9591 33.0223 73.0154 31.8952 73.1745 30.7777L62.807 31.7976Z" fill="#72351C"/>
<path d="M67.9897 35.3621C72.3377 35.3621 75.8624 32.2468 75.8624 28.4038C75.8624 24.5609 72.3377 21.4456 67.9897 21.4456C63.6418 21.4456 60.117 24.5609 60.117 28.4038C60.117 32.2468 63.6418 35.3621 67.9897 35.3621Z" fill="#FDB797"/>
<path opacity="0.1" d="M76.0945 22.7523C75.6838 21.4819 74.9897 19.1353 73.5359 18.8412C73.2193 18.8006 72.9064 18.7399 72.5996 18.6598C72.0082 18.4583 71.6037 17.9828 71.115 17.6271C70.0329 16.8376 68.1725 17.834 66.7762 17.7069C65.4641 17.5872 64.0883 17.5055 62.8747 17.9501C60.4333 18.8412 59.5031 21.4166 57.7413 23.1625C56.4292 24.4692 54.6407 25.3059 52.9795 26.2478C51.3183 27.1897 49.692 28.3549 48.9713 29.9846C48.4682 31.1371 48.4805 32.4129 48.5996 33.6452C48.9332 37.0216 50.0235 40.3055 51.807 43.3059C52.3183 44.1643 52.8891 45.01 53.1417 45.9538C53.3942 46.8975 53.2669 47.9828 52.5257 48.6888C51.4661 49.6852 49.6632 49.5745 48.23 50.0935C49.4127 51.1625 51.1745 51.6344 52.8624 51.5708C54.5503 51.5073 56.1766 50.9501 57.6448 50.206C61.4251 48.2877 64.2895 45.0917 65.8583 41.4946C66.5832 39.8231 67.0431 37.9883 66.6016 36.2423C66.2218 34.7414 65.2156 33.4365 64.3696 32.0935C63.5236 30.7505 62.8008 29.2333 63.0719 27.7142C63.3162 26.3458 64.3614 25.1607 65.6571 24.3803C66.729 23.736 68.6283 22.8539 69.9692 22.9066C71.4825 22.961 76.5051 24.0191 76.0945 22.7523Z" fill="#72351C"/>
<path d="M75.9014 22.5835C75.4908 21.3131 74.7967 18.9664 73.3429 18.6724C73.0263 18.6317 72.7134 18.5711 72.4066 18.4909C71.8152 18.2895 71.4107 17.814 70.922 17.4582C69.8398 16.6688 67.9795 17.6651 66.5832 17.5381C65.271 17.4183 63.8953 17.3366 62.6817 17.7813C60.2402 18.6724 59.3101 21.2477 57.5483 22.9936C56.2361 24.3003 54.4476 25.137 52.7864 26.0789C51.1253 27.0209 49.4866 28.186 48.7782 29.8158C48.2751 30.9682 48.2875 32.2441 48.4066 33.4764C48.7402 36.8527 49.8305 40.1367 51.614 43.137C52.1252 43.9954 52.6961 44.8412 52.9487 45.7849C53.2012 46.7287 53.0739 47.814 52.3326 48.5199C51.2731 49.5163 49.4702 49.4056 48.037 49.9247C49.2197 50.9936 50.9815 51.4655 52.6694 51.402C54.3573 51.3385 55.9836 50.7813 57.4517 50.0372C61.232 48.1189 64.0965 44.9229 65.6653 41.3258C66.3901 39.6542 66.8501 37.8194 66.4086 36.0735C66.0287 34.5726 65.0226 33.2677 64.1766 31.9247C63.3306 30.5817 62.6078 29.0644 62.8788 27.5454C63.1232 26.1769 64.1684 24.9918 65.4641 24.2114C66.5359 23.5671 68.4353 22.6851 69.7762 22.7377C71.2916 22.7922 76.3121 23.8484 75.9014 22.5835Z" fill="#252223"/>
<path opacity="0.1" d="M83.8296 65.6525C83.8296 65.6525 80.1807 67.6888 75.9569 67.3494L83.8296 65.6525Z" fill="#72351C"/>
<path opacity="0.1" d="M87.6797 68.8757C87.6797 68.8757 78.2711 72.1007 74.6242 71.7613L87.6797 68.8757Z" fill="#72351C"/>
<path opacity="0.1" d="M62.7105 60.5617C62.7105 60.5617 72.8871 61.4111 74.6201 59.7123C74.6201 59.7123 80.1889 61.2405 83.8358 59.7123" fill="#72351C"/>
<path opacity="0.1" d="M61.6633 67.0935L51.3183 78.8303L50.9035 80.6634L61.6633 67.0935Z" fill="#72351C"/>
<path opacity="0.2" d="M178.407 21.3548L171.565 19.2877C171.442 19.2505 171.312 19.2352 171.183 19.2425C171.053 19.2498 170.927 19.2796 170.811 19.3301C170.694 19.3807 170.59 19.4511 170.505 19.5372C170.419 19.6234 170.354 19.7236 170.312 19.8321L167.967 25.8775C167.925 25.9859 167.908 26.1006 167.916 26.215C167.924 26.3294 167.958 26.4412 168.015 26.544C168.072 26.6469 168.152 26.7387 168.25 26.8143C168.347 26.8899 168.46 26.9478 168.583 26.9846L175.425 29.0517C175.548 29.0888 175.678 29.1042 175.807 29.0969C175.936 29.0896 176.063 29.0598 176.179 29.0092C176.296 28.9586 176.399 28.8883 176.485 28.8021C176.571 28.716 176.636 28.6158 176.678 28.5073L179.016 22.4601C179.101 22.242 179.084 22.0033 178.97 21.7961C178.856 21.5889 178.653 21.4303 178.407 21.3548ZM176.4 23.7958C176.386 23.8448 176.366 23.8956 176.347 23.9428C175.77 25.4328 173.825 26.7613 171.481 26.0535C170.787 25.8473 170.176 25.4693 169.719 24.9646C169.817 25.0054 169.918 25.0411 170.021 25.0717C170.593 25.247 171.216 25.247 171.789 25.0717C171.524 24.987 171.296 24.8315 171.137 24.6268C170.978 24.4221 170.895 24.1786 170.899 23.9301C171.079 24.0168 171.278 24.0687 171.483 24.0826C171.214 23.9437 171.008 23.727 170.9 23.4693C170.792 23.2116 170.788 22.9288 170.889 22.6688V22.6543C171.032 22.7944 171.21 22.9026 171.409 22.97C171.274 22.8145 171.184 22.6319 171.148 22.4384C171.113 22.2449 171.131 22.0466 171.203 21.8612C171.279 21.6607 171.415 21.4821 171.595 21.3439C171.781 21.789 172.07 22.1947 172.444 22.5346C172.819 22.8745 173.27 23.1409 173.768 23.3167C173.799 23.0559 173.926 22.8113 174.13 22.621C174.335 22.4306 174.604 22.305 174.897 22.2637C175.19 22.2224 175.49 22.2676 175.751 22.3923C176.012 22.517 176.22 22.7144 176.341 22.9537C176.645 22.9917 176.954 22.9825 177.255 22.9265C177.059 23.158 176.775 23.3186 176.456 23.3784C176.719 23.4297 176.99 23.4456 177.259 23.4256C176.999 23.5908 176.71 23.716 176.402 23.7958H176.4Z" fill="black"/>
<path opacity="0.2" d="M152.99 40.7867L153.078 47.1769C153.08 47.2913 153.056 47.4049 153.008 47.5111C152.96 47.6174 152.888 47.7142 152.798 47.7961C152.708 47.878 152.6 47.9434 152.481 47.9885C152.362 48.0336 152.234 48.0575 152.105 48.059L150.353 48.0771L150.308 44.8611L151.552 44.8484L151.715 43.6198L150.292 43.6343L150.281 42.8503C150.281 42.4873 150.384 42.2513 150.961 42.2459H151.696L151.682 41.157C151.325 41.1271 150.968 41.1144 150.61 41.1189C149.55 41.1297 148.832 41.7105 148.846 42.7522L148.858 43.6597L147.61 43.6724L147.626 44.8993L148.877 44.8866L148.922 48.1007L144.879 48.1443C144.749 48.1457 144.621 48.1246 144.501 48.0821C144.381 48.0397 144.271 47.9767 144.178 47.8968C144.086 47.8169 144.012 47.7217 143.961 47.6166C143.91 47.5114 143.883 47.3984 143.881 47.284L143.793 40.8938C143.791 40.7794 143.815 40.6658 143.863 40.5596C143.911 40.4534 143.982 40.3565 144.073 40.2746C144.163 40.1927 144.271 40.1273 144.39 40.0822C144.509 40.0371 144.636 40.0132 144.766 40.0118L151.992 39.9283C152.253 39.9254 152.505 40.0141 152.692 40.1751C152.879 40.336 152.986 40.556 152.99 40.7867Z" fill="black"/>
<path opacity="0.2" d="M162.797 59.3965L165.055 65.3203C165.097 65.4275 165.114 65.541 165.106 65.6541C165.097 65.7672 165.063 65.8777 165.006 65.979C164.949 66.0804 164.869 66.1707 164.772 66.2446C164.674 66.3184 164.561 66.3744 164.439 66.4093L159.764 67.8013C159.866 67.424 159.914 67.0367 159.906 66.6488C159.889 66.4383 159.821 65.5799 159.821 65.5799C160.072 65.7922 160.6 65.8757 161.074 65.7359C162.485 65.3167 163.064 63.8684 162.511 62.4437C161.992 61.0789 160.341 60.4329 158.719 60.9156C156.7 61.5163 156.086 63.0318 156.583 64.3367C156.813 64.9428 157.466 65.5871 158.142 65.6543C158.244 65.6652 158.285 65.6343 158.277 65.5526C158.269 65.471 158.244 65.1897 158.228 65.0463C158.227 65.0237 158.219 65.0017 158.205 64.9826C158.192 64.9635 158.173 64.9479 158.15 64.9374C157.82 64.7307 157.572 64.4373 157.441 64.0989C157.348 63.8566 157.312 63.6002 157.334 63.3451C157.357 63.09 157.438 62.8416 157.572 62.6149C157.707 62.3883 157.892 62.1882 158.116 62.0268C158.341 61.8654 158.6 61.7461 158.879 61.676C160.027 61.3348 161.097 61.7868 161.472 62.7759C161.897 63.8938 161.556 64.8575 160.723 65.1044C160.618 65.1408 160.505 65.1549 160.393 65.1456C160.281 65.1363 160.173 65.1039 160.078 65.0509C159.983 64.9979 159.903 64.9258 159.845 64.8405C159.788 64.7552 159.753 64.6591 159.745 64.5599C159.69 64.0299 159.745 63.4238 159.608 63.0681C159.267 62.177 157.877 62.7269 158.331 63.9174C158.408 64.1296 158.536 64.325 158.704 64.4909C158.959 66.9029 158.879 66.9592 159.376 67.8993H159.423L157.735 68.402C157.614 68.4388 157.485 68.454 157.357 68.4464C157.23 68.4389 157.105 68.409 156.99 68.3583C156.875 68.3076 156.773 68.2372 156.689 68.1512C156.606 68.0652 156.543 67.9654 156.503 67.8575L154.244 61.9338C154.203 61.8266 154.186 61.7131 154.194 61.6C154.203 61.4869 154.236 61.3764 154.294 61.275C154.351 61.1737 154.431 61.0834 154.528 61.0095C154.625 60.9357 154.738 60.8797 154.86 60.8448L161.563 58.8485C161.684 58.8114 161.813 58.7962 161.942 58.8039C162.07 58.8115 162.195 58.8417 162.31 58.8928C162.425 58.9438 162.528 59.0147 162.611 59.1012C162.695 59.1877 162.758 59.2882 162.797 59.3965Z" fill="black"/>
<path opacity="0.2" d="M174.296 45.4818C174.127 45.9232 174.11 46.3988 174.246 46.8488C174.383 47.2988 174.667 47.703 175.063 48.0104C175.459 48.3178 175.949 48.5147 176.472 48.5762C176.994 48.6378 177.526 48.5612 177.999 48.3562C178.472 48.1512 178.867 47.8269 179.132 47.4242C179.397 47.0215 179.521 46.5585 179.489 46.0935C179.457 45.6285 179.269 45.1823 178.951 44.8112C178.632 44.4401 178.196 44.1606 177.698 44.0082C177.365 43.9063 177.013 43.8636 176.661 43.8826C176.31 43.9016 175.966 43.9819 175.65 44.1189C175.334 44.2559 175.051 44.4469 174.819 44.6808C174.586 44.9147 174.408 45.1869 174.296 45.4818ZM178.478 46.7523C178.367 47.0402 178.161 47.2925 177.888 47.4772C177.614 47.6619 177.284 47.7707 176.941 47.7899C176.597 47.809 176.255 47.7377 175.957 47.5849C175.659 47.4321 175.419 47.2047 175.267 46.9314C175.116 46.6581 175.059 46.3512 175.105 46.0495C175.151 45.7479 175.297 45.465 175.524 45.2366C175.752 45.0082 176.051 44.8446 176.384 44.7665C176.717 44.6883 177.068 44.6992 177.394 44.7976C177.831 44.9305 178.19 45.2108 178.393 45.5771C178.596 45.9434 178.627 46.366 178.478 46.7523ZM175.298 42.5962C175.412 42.6325 175.511 42.6977 175.583 42.7835C175.655 42.8694 175.697 42.9721 175.704 43.0789C175.71 43.1858 175.681 43.2919 175.62 43.3841C175.558 43.4764 175.468 43.5506 175.359 43.5976C175.25 43.6445 175.128 43.6621 175.008 43.6481C174.888 43.6342 174.776 43.5892 174.684 43.519C174.593 43.4488 174.527 43.3563 174.495 43.2532C174.463 43.1501 174.465 43.0409 174.503 42.9392C174.529 42.8699 174.57 42.8059 174.624 42.7509C174.678 42.6959 174.744 42.6511 174.818 42.6191C174.892 42.5871 174.973 42.5686 175.055 42.5646C175.138 42.5607 175.22 42.5714 175.298 42.5962ZM176.472 41.2931C175.667 41.0862 174.903 41.0336 174.127 41.3729C173.351 41.7123 172.93 42.2804 172.62 42.9628C172.31 43.6452 171.456 45.8321 171.224 46.569C170.992 47.3058 170.932 47.9537 171.312 48.6416C171.692 49.3294 172.339 49.6996 173.111 49.9737C173.883 50.2477 176.357 51.0027 177.191 51.2078C178.025 51.4129 178.76 51.4673 179.536 51.1279C180.312 50.7886 180.733 50.2205 181.043 49.5381C181.353 48.8557 182.207 46.6688 182.439 45.9319C182.671 45.1951 182.733 44.5454 182.349 43.8593C181.965 43.1733 181.322 42.8013 180.55 42.5272C179.778 42.2532 177.306 41.5 176.472 41.2931ZM181.064 43.7232C181.247 43.8618 181.396 44.0322 181.502 44.2239C181.608 44.4156 181.669 44.6244 181.68 44.8376C181.715 45.4909 181.127 46.8339 180.881 47.4746C180.635 48.1152 180.162 49.4945 179.684 49.99C179.527 50.1522 179.334 50.2842 179.117 50.3778C178.9 50.4715 178.664 50.5248 178.423 50.5345C177.684 50.5653 176.164 50.0463 175.439 49.8285C174.715 49.6107 173.154 49.1933 172.593 48.7704C172.41 48.6318 172.261 48.4614 172.155 48.2697C172.049 48.078 171.988 47.8692 171.977 47.6561C171.943 47.0027 172.53 45.6597 172.776 45.019C173.023 44.3784 173.495 42.9991 173.973 42.5036C174.13 42.3415 174.323 42.2095 174.54 42.1158C174.757 42.0222 174.993 41.9688 175.234 41.9592C175.973 41.9283 177.493 42.4474 178.218 42.6651C178.943 42.8829 180.505 43.3004 181.066 43.725L181.064 43.7232Z" fill="black"/>
<path opacity="0.2" d="M128.109 59.4147L130.343 59.9773L128.653 61.3857L128.109 59.4147ZM132.877 56.0317L134.647 62.4328C134.709 62.6647 134.665 62.9089 134.526 63.1127C134.386 63.3164 134.161 63.4634 133.899 63.5218L126.647 65.0862C126.384 65.1411 126.108 65.1026 125.878 64.979C125.647 64.8554 125.481 64.6566 125.415 64.4256L123.645 58.0154C123.583 57.7835 123.626 57.5393 123.766 57.3356C123.906 57.1318 124.131 56.9849 124.392 56.9265L131.645 55.3621C131.909 55.3074 132.186 55.3472 132.417 55.4726C132.648 55.598 132.813 55.799 132.877 56.0317ZM132.897 59.4292C132.897 59.4292 132.598 58.3403 132.298 57.8575C132.217 57.7261 132.099 57.6157 131.955 57.5374C131.81 57.459 131.646 57.4155 131.476 57.4111C130.86 57.3965 128.507 57.9029 128.507 57.9029C128.507 57.9029 126.16 58.4092 125.616 58.6742C125.468 58.7461 125.344 58.8509 125.256 58.9782C125.168 59.1056 125.12 59.251 125.115 59.4002C125.101 59.9446 125.402 61.0336 125.402 61.0336C125.402 61.0336 125.702 62.1225 126.002 62.6053C126.083 62.7357 126.202 62.8449 126.346 62.9217C126.49 62.9985 126.655 63.0402 126.823 63.0426C127.439 63.0553 129.791 62.549 129.791 62.549C129.791 62.549 132.138 62.0426 132.682 61.7777C132.831 61.7069 132.956 61.6024 133.044 61.4749C133.133 61.3473 133.181 61.2013 133.185 61.0517C133.199 60.5073 132.899 59.4183 132.899 59.4183L132.897 59.4292Z" fill="black"/>
</g>
<defs>
<linearGradient id="paint0_linear" x1="84.2197" y1="42.9229" x2="84.2197" y2="19.2822" gradientUnits="userSpaceOnUse">
<stop stop-color="#808080" stop-opacity="0.25"/>
<stop offset="0.54" stop-color="#808080" stop-opacity="0.12"/>
<stop offset="1" stop-color="#808080" stop-opacity="0.1"/>
</linearGradient>
<linearGradient id="paint1_linear" x1="32185" y1="25678.8" x2="32185" y2="10372.5" gradientUnits="userSpaceOnUse">
<stop stop-color="#808080" stop-opacity="0.25"/>
<stop offset="0.54" stop-color="#808080" stop-opacity="0.12"/>
<stop offset="1" stop-color="#808080" stop-opacity="0.1"/>
</linearGradient>
<linearGradient id="paint2_linear" x1="2850.25" y1="4022.33" x2="2850.25" y2="3712.02" gradientUnits="userSpaceOnUse">
<stop stop-color="#808080" stop-opacity="0.25"/>
<stop offset="0.54" stop-color="#808080" stop-opacity="0.12"/>
<stop offset="1" stop-color="#808080" stop-opacity="0.1"/>
</linearGradient>
<linearGradient id="paint3_linear" x1="5688.84" y1="3520.88" x2="5688.84" y2="3218.53" gradientUnits="userSpaceOnUse">
<stop stop-color="#808080" stop-opacity="0.25"/>
<stop offset="0.54" stop-color="#808080" stop-opacity="0.12"/>
<stop offset="1" stop-color="#808080" stop-opacity="0.1"/>
</linearGradient>
<linearGradient id="paint4_linear" x1="3323.89" y1="9985.51" x2="3323.89" y2="9107.48" gradientUnits="userSpaceOnUse">
<stop stop-color="#808080" stop-opacity="0.25"/>
<stop offset="0.54" stop-color="#808080" stop-opacity="0.12"/>
<stop offset="1" stop-color="#808080" stop-opacity="0.1"/>
</linearGradient>
<linearGradient id="paint5_linear" x1="28433.6" y1="6865.7" x2="28433.6" y2="6113.28" gradientUnits="userSpaceOnUse">
<stop stop-color="#808080" stop-opacity="0.25"/>
<stop offset="0.54" stop-color="#808080" stop-opacity="0.12"/>
<stop offset="1" stop-color="#808080" stop-opacity="0.1"/>
</linearGradient>
<linearGradient id="paint6_linear" x1="28433.6" y1="6865.7" x2="28433.6" y2="6113.28" gradientUnits="userSpaceOnUse">
<stop stop-color="#808080" stop-opacity="0.25"/>
<stop offset="0.54" stop-color="#808080" stop-opacity="0.12"/>
<stop offset="1" stop-color="#808080" stop-opacity="0.1"/>
</linearGradient>
<linearGradient id="paint7_linear" x1="6820.8" y1="25279.1" x2="6820.8" y2="18430.9" gradientUnits="userSpaceOnUse">
<stop stop-color="#808080" stop-opacity="0.25"/>
<stop offset="0.54" stop-color="#808080" stop-opacity="0.12"/>
<stop offset="1" stop-color="#808080" stop-opacity="0.1"/>
</linearGradient>
<linearGradient id="paint8_linear" x1="8692.66" y1="40032.2" x2="8692.66" y2="26302.7" gradientUnits="userSpaceOnUse">
<stop stop-color="#808080" stop-opacity="0.25"/>
<stop offset="0.54" stop-color="#808080" stop-opacity="0.12"/>
<stop offset="1" stop-color="#808080" stop-opacity="0.1"/>
</linearGradient>
<linearGradient id="paint9_linear" x1="8655.18" y1="40032.2" x2="8655.18" y2="26302.7" gradientUnits="userSpaceOnUse">
<stop stop-color="#808080" stop-opacity="0.25"/>
<stop offset="0.54" stop-color="#808080" stop-opacity="0.12"/>
<stop offset="1" stop-color="#808080" stop-opacity="0.1"/>
</linearGradient>
<linearGradient id="paint10_linear" x1="4264.02" y1="10477.3" x2="4264.02" y2="9686.85" gradientUnits="userSpaceOnUse">
<stop stop-color="#808080" stop-opacity="0.25"/>
<stop offset="0.54" stop-color="#808080" stop-opacity="0.12"/>
<stop offset="1" stop-color="#808080" stop-opacity="0.1"/>
</linearGradient>
<linearGradient id="paint11_linear" x1="29137.7" y1="26616.7" x2="29137.7" y2="14169.5" gradientUnits="userSpaceOnUse">
<stop stop-color="#808080" stop-opacity="0.25"/>
<stop offset="0.54" stop-color="#808080" stop-opacity="0.12"/>
<stop offset="1" stop-color="#808080" stop-opacity="0.1"/>
</linearGradient>
<linearGradient id="paint12_linear" x1="29129.1" y1="26525.1" x2="29129.1" y2="14077.9" gradientUnits="userSpaceOnUse">
<stop stop-color="#808080" stop-opacity="0.25"/>
<stop offset="0.54" stop-color="#808080" stop-opacity="0.12"/>
<stop offset="1" stop-color="#808080" stop-opacity="0.1"/>
</linearGradient>
<linearGradient id="paint13_linear" x1="4102.88" y1="391.244" x2="4102.88" y2="379.321" gradientUnits="userSpaceOnUse">
<stop stop-color="#808080" stop-opacity="0.25"/>
<stop offset="0.54" stop-color="#808080" stop-opacity="0.12"/>
<stop offset="1" stop-color="#808080" stop-opacity="0.1"/>
</linearGradient>
<linearGradient id="paint14_linear" x1="3078.78" y1="975.452" x2="3078.78" y2="913.064" gradientUnits="userSpaceOnUse">
<stop stop-color="#808080" stop-opacity="0.25"/>
<stop offset="0.54" stop-color="#808080" stop-opacity="0.12"/>
<stop offset="1" stop-color="#808080" stop-opacity="0.1"/>
</linearGradient>
<linearGradient id="paint15_linear" x1="4882.82" y1="1076.25" x2="4882.82" y2="953.953" gradientUnits="userSpaceOnUse">
<stop stop-color="#808080" stop-opacity="0.25"/>
<stop offset="0.54" stop-color="#808080" stop-opacity="0.12"/>
<stop offset="1" stop-color="#808080" stop-opacity="0.1"/>
</linearGradient>
<linearGradient id="paint16_linear" x1="5506.23" y1="2674.03" x2="5506.23" y2="1545.52" gradientUnits="userSpaceOnUse">
<stop stop-color="#808080" stop-opacity="0.25"/>
<stop offset="0.54" stop-color="#808080" stop-opacity="0.12"/>
<stop offset="1" stop-color="#808080" stop-opacity="0.1"/>
</linearGradient>
<linearGradient id="paint17_linear" x1="12132.6" y1="11085.1" x2="12132.6" y2="4242.45" gradientUnits="userSpaceOnUse">
<stop stop-color="#808080" stop-opacity="0.25"/>
<stop offset="0.54" stop-color="#808080" stop-opacity="0.12"/>
<stop offset="1" stop-color="#808080" stop-opacity="0.1"/>
</linearGradient>
<linearGradient id="paint18_linear" x1="12103.8" y1="11051.1" x2="12103.8" y2="4208.44" gradientUnits="userSpaceOnUse">
<stop stop-color="#808080" stop-opacity="0.25"/>
<stop offset="0.54" stop-color="#808080" stop-opacity="0.12"/>
<stop offset="1" stop-color="#808080" stop-opacity="0.1"/>
</linearGradient>
<linearGradient id="paint19_linear" x1="4243.04" y1="785.892" x2="4243.04" y2="768.345" gradientUnits="userSpaceOnUse">
<stop stop-color="#808080" stop-opacity="0.25"/>
<stop offset="0.54" stop-color="#808080" stop-opacity="0.12"/>
<stop offset="1" stop-color="#808080" stop-opacity="0.1"/>
</linearGradient>
<linearGradient id="paint20_linear" x1="7075.15" y1="1351.45" x2="7075.15" y2="1302.1" gradientUnits="userSpaceOnUse">
<stop stop-color="#808080" stop-opacity="0.25"/>
<stop offset="0.54" stop-color="#808080" stop-opacity="0.12"/>
<stop offset="1" stop-color="#808080" stop-opacity="0.1"/>
</linearGradient>
<linearGradient id="paint21_linear" x1="10484.8" y1="458.797" x2="10484.8" y2="452.239" gradientUnits="userSpaceOnUse">
<stop stop-color="#808080" stop-opacity="0.25"/>
<stop offset="0.54" stop-color="#808080" stop-opacity="0.12"/>
<stop offset="1" stop-color="#808080" stop-opacity="0.1"/>
</linearGradient>
<clipPath id="clip0">
<rect width="200" height="150" fill="white" transform="translate(0 0.5)"/>
</clipPath>
</defs>
</svg>
