<svg width="200" height="151" viewBox="0 0 200 151" fill="none" xmlns="http://www.w3.org/2000/svg">
<g clip-path="url(#clip0)">
<path d="M102.093 2.9843L48.106 32.6821C49.0292 34.2961 49.6239 36.082 49.855 37.9338C50.0861 39.7855 49.9489 41.6656 49.4514 43.4625C48.9539 45.2595 48.1064 46.9367 46.9589 48.3949C45.8115 49.853 44.3875 51.0624 42.7714 51.9515C41.1552 52.8405 39.3798 53.391 37.5503 53.5704C35.7209 53.7498 33.8745 53.5545 32.1208 52.9959C30.367 52.4374 28.7414 51.527 27.3405 50.3188C25.9395 49.1105 24.7916 47.629 23.9647 45.9619L5.5566 56.088L53.2393 145.49L149.776 92.3859L102.093 2.9843Z" fill="#F2F2F2"/>
<path opacity="0.2" d="M47.319 81.2925L37.4069 78.6034L34.759 88.6699L44.6711 91.359L47.319 81.2925Z" fill="#2B468B"/>
<path d="M61.1376 121.801C53.2143 134.141 55.3853 149.836 55.3853 149.836C55.3853 149.836 70.4024 145.524 78.3256 133.184C86.2488 120.844 84.0779 105.149 84.0779 105.149C84.0779 105.149 69.0608 109.462 61.1376 121.801Z" fill="#3F3D56"/>
<path d="M55.3432 149.692C55.3432 149.692 55.1503 149.661 54.7953 149.588C54.5121 149.53 54.1223 149.446 53.6462 149.332C49.3905 148.313 38.076 144.868 30.6787 135.811C21.4203 124.471 21.8102 108.627 21.8102 108.627C21.8102 108.627 35.9666 110.963 45.2948 121.147C45.699 121.585 46.0923 122.038 46.4746 122.508C54.5306 132.375 55.2816 145.652 55.3411 148.934C55.3493 149.426 55.3432 149.692 55.3432 149.692Z" fill="#2B468B"/>
<path d="M49.633 121.801C57.5563 134.141 55.3853 149.836 55.3853 149.836C55.3853 149.836 40.3682 145.524 32.445 133.184C24.5217 120.844 26.6927 105.149 26.6927 105.149C26.6927 105.149 41.7098 109.462 49.633 121.801Z" stroke="#3F3D56" stroke-width="2" stroke-miterlimit="10"/>
<path opacity="0.1" d="M55.3411 148.934C55.1318 149.19 54.9471 149.409 54.7953 149.588C54.4588 149.978 54.2679 150.182 54.2679 150.182C54.2679 150.182 54.0361 149.886 53.6462 149.332C51.506 146.302 44.6217 135.528 45.1532 123.083C45.1819 122.431 45.2291 121.786 45.2947 121.147C45.699 121.585 46.0923 122.038 46.4746 122.508C54.5306 132.375 55.2816 145.652 55.3411 148.934Z" fill="black"/>
<path d="M67.0892 123.983C66.4629 138.701 55.7051 150.182 55.7051 150.182C55.7051 150.182 45.9626 137.801 46.5888 123.083C47.2151 108.366 57.973 96.8842 57.973 96.8842C57.973 96.8842 67.7155 109.265 67.0892 123.983Z" fill="#2B468B"/>
<path d="M56.7877 93.4577C59.087 93.4577 60.9509 91.5648 60.9509 89.2298C60.9509 86.8947 59.087 85.0018 56.7877 85.0018C54.4885 85.0018 52.6245 86.8947 52.6245 89.2298C52.6245 91.5648 54.4885 93.4577 56.7877 93.4577Z" fill="#3F3D56"/>
<path d="M43.7305 92.3047C45.4027 92.3047 46.7583 90.928 46.7583 89.2298C46.7583 87.5315 45.4027 86.1548 43.7305 86.1548C42.0583 86.1548 40.7027 87.5315 40.7027 89.2298C40.7027 90.928 42.0583 92.3047 43.7305 92.3047Z" stroke="#3F3D56" stroke-width="2" stroke-miterlimit="10"/>
<path d="M69.8449 92.3047C71.5171 92.3047 72.8727 90.928 72.8727 89.2298C72.8727 87.5315 71.5171 86.1548 69.8449 86.1548C68.1728 86.1548 66.8172 87.5315 66.8172 89.2298C66.8172 90.928 68.1728 92.3047 69.8449 92.3047Z" stroke="#3F3D56" stroke-width="2" stroke-miterlimit="10"/>
<path d="M55.705 149.765L58.0702 97.4845" stroke="#3F3D56" stroke-width="2" stroke-miterlimit="10"/>
<path d="M187.6 61.041C189.899 61.041 191.763 59.1481 191.763 56.813C191.763 54.478 189.899 52.585 187.6 52.585C185.3 52.585 183.436 54.478 183.436 56.813C183.436 59.1481 185.3 61.041 187.6 61.041Z" fill="#3F3D56"/>
<path d="M101.493 6.54032C103.165 6.54032 104.521 5.16364 104.521 3.46542C104.521 1.7672 103.165 0.390518 101.493 0.390518C99.8207 0.390518 98.4651 1.7672 98.4651 3.46542C98.4651 5.16364 99.8207 6.54032 101.493 6.54032Z" stroke="#3F3D56" stroke-width="2" stroke-miterlimit="10"/>
<path d="M67.0748 25.7121C68.747 25.7121 70.1026 24.3354 70.1026 22.6372C70.1026 20.939 68.747 19.5623 67.0748 19.5623C65.4026 19.5623 64.047 20.939 64.047 22.6372C64.047 24.3354 65.4026 25.7121 67.0748 25.7121Z" stroke="#3F3D56" stroke-width="2" stroke-miterlimit="10"/>
<path d="M134.4 37.0451C139.813 37.0451 144.201 32.5889 144.201 27.0919C144.201 21.5948 139.813 17.1386 134.4 17.1386C128.987 17.1386 124.599 21.5948 124.599 27.0919C124.599 32.5889 128.987 37.0451 134.4 37.0451Z" fill="#FF6584"/>
<path d="M156.959 115.041L162.197 136.492L167.435 135.634L162.197 111.094L156.959 115.041Z" fill="#FBBEBE"/>
<path d="M164.056 135.119C164.056 135.119 161.073 136.143 161.466 136.832C161.859 137.522 161.859 141.812 160.507 143.356C159.155 144.901 155.776 149.706 159.662 149.877C163.549 150.049 167.435 147.475 167.435 147.475V143.013L168.111 147.132H168.787V142.498C168.787 142.498 170.477 139.581 169.463 137.865C168.449 136.149 167.788 134.653 166.513 134.8C165.239 134.947 164.056 135.119 164.056 135.119Z" fill="#2F2E41"/>
<path d="M136.343 133.231L135.498 137.865H141.413V133.231H136.343Z" fill="#FBBEBE"/>
<path d="M136.85 136.835C136.85 136.835 135.161 136.663 134.654 139.066C134.147 141.468 129.584 146.568 127.895 147.083C126.205 147.597 126.205 149.313 128.401 149.657C130.598 150 136.174 150.172 137.526 148.284C138.878 146.396 140.737 143.356 140.737 143.356L139.892 149.828H141.413C141.413 149.828 142.765 143.528 144.116 141.983C145.468 140.439 141.413 136.835 140.737 136.835H136.85Z" fill="#2F2E41"/>
<path d="M128.57 63.0437C128.57 63.0437 127.388 66.3042 125.36 66.8191C123.332 67.3339 108.293 70.9376 108.293 70.9376C108.293 70.9376 95.1129 71.2809 99.1684 74.1982C103.224 77.1155 109.814 74.1982 109.814 74.1982C109.814 74.1982 129.077 71.7957 130.598 69.2216C131.599 67.4698 132.447 65.6322 133.133 63.7301L128.57 63.0437Z" fill="#FBBEBE"/>
<path d="M134.992 48.6286C134.992 48.6286 125.36 64.5882 126.543 64.9314C127.726 65.2746 138.709 68.8784 139.216 67.5055C139.723 66.1326 139.723 59.7831 139.723 59.7831L134.992 48.6286Z" fill="#2F2E41"/>
<path opacity="0.1" d="M134.992 48.6286C134.992 48.6286 125.36 64.5882 126.543 64.9314C127.726 65.2746 138.709 68.8784 139.216 67.5055C139.723 66.1326 139.723 59.7831 139.723 59.7831L134.992 48.6286Z" fill="black"/>
<path d="M160 44.8532L181.798 56.1794C181.798 56.1794 194.134 59.4399 191.43 62.014C188.726 64.5881 179.94 59.7831 179.94 59.7831L155.776 48.6286L160 44.8532Z" fill="#FBBEBE"/>
<path d="M132.119 35.9296C132.119 35.9296 136.343 42.4507 136.005 43.9952C136.005 43.9952 136.343 45.0249 135.836 45.7113C135.33 46.3977 135.499 50.5163 135.499 50.5163L137.188 52.9188L139.385 45.5397L140.399 37.6457C140.399 37.6457 138.118 34.471 138.456 32.9265C138.794 31.382 132.119 35.9296 132.119 35.9296Z" fill="#FBBEBE"/>
<path d="M145.468 72.9969C145.468 72.9969 136.005 98.7381 136.005 110.064C136.005 121.39 132.457 134.261 135.161 135.462C137.864 136.663 151.551 136.835 151.889 135.462C152.227 134.089 150.2 78.3168 149.186 76.0859C148.172 73.855 145.468 72.9969 145.468 72.9969Z" fill="#2F2E41"/>
<path opacity="0.1" d="M145.468 72.9969C145.468 72.9969 136.005 98.7381 136.005 110.064C136.005 121.39 132.457 134.261 135.161 135.462C137.864 136.663 151.551 136.835 151.889 135.462C152.227 134.089 150.2 78.3168 149.186 76.0859C148.172 73.855 145.468 72.9969 145.468 72.9969Z" fill="black"/>
<path d="M134.316 36.9593C137.769 36.9593 140.568 34.1166 140.568 30.6098C140.568 27.1031 137.769 24.2603 134.316 24.2603C130.863 24.2603 128.064 27.1031 128.064 30.6098C128.064 34.1166 130.863 36.9593 134.316 36.9593Z" fill="#FBBEBE"/>
<path d="M136.174 49.8299L135.722 45.9571C135.722 45.9571 134.316 47.9422 134.316 49.4867C134.316 51.0311 133.471 56.5226 137.019 59.9548C140.568 63.3869 141.244 64.0733 141.413 64.7598C141.582 65.4462 142.427 65.4462 142.427 65.4462L147.327 85.5243C147.327 85.5243 148.848 138.894 151.213 139.581C153.579 140.267 160.845 139.581 161.352 138.723C161.859 137.865 160.507 115.041 160.507 115.041C160.507 115.041 164.225 135.291 165.577 135.291C166.928 135.291 167.773 132.373 167.435 132.202C167.097 132.03 165.07 118.816 164.225 114.698C163.38 110.579 163.718 75.7427 163.718 75.7427C163.718 75.7427 166.421 71.2809 157.128 62.5289C157.128 62.5289 151.213 45.0249 150.876 45.0249C150.538 45.0249 143.947 35.5864 143.947 35.5864C143.947 35.5864 140.23 35.5864 139.554 37.8173C138.878 40.0482 136.174 49.8299 136.174 49.8299Z" fill="#2F2E41"/>
<path d="M141.92 36.9593L143.947 35.5864C143.947 35.5864 152.396 40.7347 158.311 41.0779C164.225 41.4211 164.056 44.8533 161.69 47.2558C159.324 49.6583 150.031 57.8955 149.693 55.8362C149.355 53.7769 141.92 36.9593 141.92 36.9593Z" fill="#2F2E41"/>
<path d="M134.4 28.4647C138.133 28.4647 141.159 26.6208 141.159 24.3461C141.159 22.0715 138.133 20.2275 134.4 20.2275C130.667 20.2275 127.641 22.0715 127.641 24.3461C127.641 26.6208 130.667 28.4647 134.4 28.4647Z" fill="#FF6584"/>
<path d="M135.076 21.2572C137.316 21.2572 139.132 19.4132 139.132 17.1386C139.132 14.8639 137.316 13.02 135.076 13.02C132.836 13.02 131.021 14.8639 131.021 17.1386C131.021 19.4132 132.836 21.2572 135.076 21.2572Z" fill="#FF6584"/>
<path d="M129.669 14.9077C129.669 13.8897 130.04 12.9077 130.711 12.1513C131.382 11.3948 132.305 10.9175 133.302 10.8114C133.161 10.7966 133.02 10.7891 132.879 10.7891C131.804 10.7891 130.772 11.223 130.012 11.9954C129.251 12.7678 128.824 13.8154 128.824 14.9077C128.824 16 129.251 17.0476 130.012 17.82C130.772 18.5924 131.804 19.0263 132.879 19.0263C133.02 19.0262 133.161 19.0188 133.302 19.004C132.305 18.8979 131.382 18.4205 130.711 17.6641C130.04 16.9077 129.669 15.9257 129.669 14.9077Z" fill="#FF6584"/>
<path d="M35.4093 51.005C41.5646 51.005 46.5545 45.9374 46.5545 39.6863C46.5545 33.4351 41.5646 28.3676 35.4093 28.3676C29.254 28.3676 24.2641 33.4351 24.2641 39.6863C24.2641 45.9374 29.254 51.005 35.4093 51.005Z" fill="#2B468B"/>
<path d="M197.499 36.4312L187.756 46.3252L183.662 42.1667C183.532 42.0347 183.377 41.93 183.208 41.8585C183.038 41.7871 182.856 41.7503 182.672 41.7503C182.488 41.7503 182.306 41.7871 182.136 41.8585C181.966 41.93 181.812 42.0347 181.682 42.1667L181.535 41.9432C180.988 42.4984 181.136 43.6219 181.682 44.177L186.995 49.5726C187.195 49.7759 187.467 49.8902 187.75 49.8903C188.033 49.8903 188.305 49.7762 188.505 49.573L199.477 38.4416C200.024 37.8867 200.223 36.8691 199.676 36.3139C199.129 35.7589 198.045 35.8762 197.499 36.4312Z" fill="#2B468B"/>
<path opacity="0.1" d="M197.499 36.4312L187.756 46.3252L183.662 42.1667C183.532 42.0347 183.377 41.93 183.208 41.8585C183.038 41.7871 182.856 41.7503 182.672 41.7503C182.488 41.7503 182.306 41.7871 182.136 41.8585C181.966 41.93 181.812 42.0347 181.682 42.1667L181.535 41.9432C180.988 42.4984 181.136 43.6219 181.682 44.177L186.995 49.5726C187.195 49.7759 187.467 49.8902 187.75 49.8903C188.033 49.8903 188.305 49.7762 188.505 49.573L199.477 38.4416C200.024 37.8867 200.223 36.8691 199.676 36.3139C199.129 35.7589 198.045 35.8762 197.499 36.4312Z" fill="black"/>
<path d="M197.499 35.9926L187.756 45.8865L183.662 41.728C183.532 41.596 183.377 41.4913 183.208 41.4199C183.038 41.3484 182.856 41.3117 182.672 41.3117C182.488 41.3117 182.306 41.3484 182.136 41.4199C181.966 41.4913 181.812 41.596 181.682 41.728C181.552 41.86 181.449 42.0167 181.379 42.1892C181.308 42.3617 181.272 42.5465 181.272 42.7332C181.272 42.9199 181.308 43.1047 181.379 43.2772C181.449 43.4497 181.552 43.6064 181.682 43.7384L186.995 49.1339C187.195 49.3373 187.467 49.4515 187.75 49.4516C188.033 49.4517 188.305 49.3375 188.505 49.1343L199.477 38.0029C199.607 37.871 199.711 37.7143 199.781 37.5419C199.851 37.3694 199.888 37.1845 199.888 36.9979C199.888 36.8112 199.852 36.6263 199.781 36.4538C199.711 36.2813 199.608 36.1246 199.478 35.9926C199.215 35.726 198.859 35.5763 198.488 35.5763C198.117 35.5763 197.761 35.726 197.499 35.9926Z" fill="#2B468B"/>
</g>
<defs>
<clipPath id="clip0">
<rect width="200" height="150" fill="white" transform="translate(0 0.182129)"/>
</clipPath>
</defs>
</svg>
